<?xml version="1.0" encoding="UTF-8" standalone="no"?>
<svg
   xmlns:dc="http://purl.org/dc/elements/1.1/"
   xmlns:cc="http://creativecommons.org/ns#"
   xmlns:rdf="http://www.w3.org/1999/02/22-rdf-syntax-ns#"
   xmlns:svg="http://www.w3.org/2000/svg"
   xmlns="http://www.w3.org/2000/svg"
   xmlns:sodipodi="http://sodipodi.sourceforge.net/DTD/sodipodi-0.dtd"
   xmlns:inkscape="http://www.inkscape.org/namespaces/inkscape"
   width="204.46265mm"
   height="84.729187mm"
   viewBox="0 0 204.46265 84.729187"
   version="1.1"
   id="svg8"
   inkscape:version="1.0.2-2 (e86c870879, 2021-01-15)"
   sodipodi:docname="logo.svg">
  <defs
     id="defs2">
    <inkscape:path-effect
       effect="bspline"
       id="path-effect1685"
       is_visible="true"
       lpeversion="1"
       weight="33.333333"
       steps="2"
       helper_size="0"
       apply_no_weight="true"
       apply_with_weight="true"
       only_selected="false" />
    <inkscape:path-effect
       effect="bspline"
       id="path-effect1681"
       is_visible="true"
       lpeversion="1"
       weight="33.333333"
       steps="2"
       helper_size="0"
       apply_no_weight="true"
       apply_with_weight="true"
       only_selected="false" />
    <inkscape:path-effect
       effect="bspline"
       id="path-effect1677"
       is_visible="true"
       lpeversion="1"
       weight="33.333333"
       steps="2"
       helper_size="0"
       apply_no_weight="true"
       apply_with_weight="true"
       only_selected="false" />
    <inkscape:path-effect
       effect="bspline"
       id="path-effect1672"
       is_visible="true"
       lpeversion="1"
       weight="33.333333"
       steps="2"
       helper_size="0"
       apply_no_weight="true"
       apply_with_weight="true"
       only_selected="false" />
    <inkscape:path-effect
       effect="bspline"
       id="path-effect1611"
       is_visible="true"
       lpeversion="1"
       weight="33.333333"
       steps="2"
       helper_size="0"
       apply_no_weight="true"
       apply_with_weight="true"
       only_selected="false" />
    <inkscape:path-effect
       effect="bspline"
       id="path-effect1595"
       is_visible="true"
       lpeversion="1"
       weight="33.333333"
       steps="2"
       helper_size="0"
       apply_no_weight="true"
       apply_with_weight="true"
       only_selected="false" />
    <inkscape:path-effect
       effect="bspline"
       id="path-effect1572"
       is_visible="true"
       lpeversion="1"
       weight="33.333333"
       steps="2"
       helper_size="0"
       apply_no_weight="true"
       apply_with_weight="true"
       only_selected="false" />
    <inkscape:path-effect
       effect="bspline"
       id="path-effect1568"
       is_visible="true"
       lpeversion="1"
       weight="33.333333"
       steps="2"
       helper_size="0"
       apply_no_weight="true"
       apply_with_weight="true"
       only_selected="false" />
    <inkscape:path-effect
       effect="bspline"
       id="path-effect1550"
       is_visible="true"
       lpeversion="1"
       weight="33.333333"
       steps="2"
       helper_size="0"
       apply_no_weight="true"
       apply_with_weight="true"
       only_selected="false" />
    <inkscape:path-effect
       effect="bspline"
       id="path-effect1546"
       is_visible="true"
       lpeversion="1"
       weight="33.333333"
       steps="2"
       helper_size="0"
       apply_no_weight="true"
       apply_with_weight="true"
       only_selected="false" />
    <inkscape:path-effect
       effect="bspline"
       id="path-effect1541"
       is_visible="true"
       lpeversion="1"
       weight="33.333333"
       steps="2"
       helper_size="0"
       apply_no_weight="true"
       apply_with_weight="true"
       only_selected="false" />
    <inkscape:path-effect
       effect="bspline"
       id="path-effect1404"
       is_visible="true"
       lpeversion="1"
       weight="33.333333"
       steps="2"
       helper_size="0"
       apply_no_weight="true"
       apply_with_weight="true"
       only_selected="false" />
  </defs>
  <sodipodi:namedview
     id="base"
     pagecolor="#ffffff"
     bordercolor="#666666"
     borderopacity="1.0"
     inkscape:pageopacity="0.0"
     inkscape:pageshadow="2"
     inkscape:zoom="0.7"
     inkscape:cx="371.43898"
     inkscape:cy="302.8915"
     inkscape:document-units="mm"
     inkscape:current-layer="layer1"
     inkscape:document-rotation="0"
     showgrid="false"
     inkscape:window-width="1920"
     inkscape:window-height="1017"
     inkscape:window-x="-8"
     inkscape:window-y="-8"
     inkscape:window-maximized="1"
     fit-margin-top="0"
     fit-margin-left="0"
     fit-margin-right="0"
     fit-margin-bottom="0" />
  <metadata
     id="metadata5">
    <rdf:RDF>
      <cc:Work
         rdf:about="">
        <dc:format>image/svg+xml</dc:format>
        <dc:type
           rdf:resource="http://purl.org/dc/dcmitype/StillImage" />
        <dc:title></dc:title>
      </cc:Work>
    </rdf:RDF>
  </metadata>
  <g
     inkscape:label="Lag 1"
     inkscape:groupmode="layer"
     id="layer1"
     transform="translate(-7.4350255,-3.2417734)">
    <g
       id="g1556"
       transform="translate(-7.4839285,1.1339286)">
      <path
         style="fill:none;stroke:#000000;stroke-width:0.264583px;stroke-linecap:butt;stroke-linejoin:miter;stroke-opacity:1"
         d="m 53.989709,23.053422 c -11.6664,0 -23.332838,0 -29.166419,5.000231 -5.833581,5.000231 -5.833581,14.999833 1e-6,19.999801 5.833583,4.999968 17.499782,4.999968 23.3331,10.0002 5.833318,5.000233 5.833318,14.999833 2.833347,20.833126 -2.999971,5.833293 -8.99973,7.499892 -14.833113,7.499963 -5.833382,7.1e-5 -11.499935,-1.666562 -17.166916,-3.333321"
         id="path1402"
         inkscape:path-effect="#path-effect1404"
         inkscape:original-d="m 53.989709,23.053422 c -11.6664,2.65e-4 -23.332838,2.65e-4 -35,0 2.65e-4,10.000462 2.65e-4,20.000064 0,30 11.667165,2.65e-4 23.333364,2.65e-4 35,0 2.65e-4,10.000465 2.65e-4,20.000065 0,30 -5.999855,1.666964 -11.999614,3.333564 -18,5 -5.666517,-1.666436 -11.33307,-3.333069 -17,-5"
         sodipodi:nodetypes="ccccccc" />
      <path
         style="fill:none;stroke:#000000;stroke-width:0.264583px;stroke-linecap:butt;stroke-linejoin:miter;stroke-opacity:1"
         d="m 50.037328,15.132291 c -11.6664,0 -23.332838,0 -29.166419,5.000231 -5.833581,5.000231 -5.833581,14.999833 10e-7,19.999801 5.833583,4.999968 17.499782,4.999968 23.3331,10.000201 5.833318,5.000232 5.833318,14.999832 2.833347,20.833125 -2.999971,5.833293 -8.99973,7.499892 -14.833113,7.499963 -5.833382,7.1e-5 -11.499935,-1.666562 -17.166916,-3.333321"
         id="path1402-3"
         inkscape:path-effect="#path-effect1541"
         inkscape:original-d="m 50.037328,15.132291 c -11.6664,2.65e-4 -23.332838,2.65e-4 -35,0 2.65e-4,10.000462 2.65e-4,20.000064 0,30 11.667165,2.65e-4 23.333364,2.65e-4 35,0 2.65e-4,10.000465 2.65e-4,20.000065 0,30 -5.999855,1.666964 -11.999614,3.333564 -18,5 -5.666517,-1.666436 -11.33307,-3.333069 -17,-5"
         sodipodi:nodetypes="ccccccc" />
      <path
         style="fill:none;stroke:#000000;stroke-width:0.264583px;stroke-linecap:butt;stroke-linejoin:miter;stroke-opacity:1"
         d="m 50.037327,15.132291 c 1.317619,2.640695 2.635079,5.281072 3.952381,7.921131"
         id="path1544"
         inkscape:path-effect="#path-effect1546"
         inkscape:original-d="m 50.037327,15.132291 c 1.317726,2.640641 2.635187,5.281018 3.952381,7.921131" />
      <path
         style="fill:none;stroke:#000000;stroke-width:0.264583px;stroke-linecap:butt;stroke-linejoin:miter;stroke-opacity:1"
         d="m 15.037328,75.132289 c 1.317619,2.640695 2.635079,5.281073 3.952381,7.921133"
         id="path1548"
         inkscape:path-effect="#path-effect1550"
         inkscape:original-d="m 15.037328,75.132289 c 1.317725,2.640642 2.635185,5.28102 3.952381,7.921133" />
    </g>
    <path
       style="fill:#a8a74b;fill-opacity:1;fill-rule:nonzero;stroke:#000000;stroke-width:0.945;stroke-miterlimit:4;stroke-dasharray:none;stroke-opacity:0.718876"
       d="m 12.399844,39.998664 c -1.310191,-1.363027 -2.4139422,-3.604691 -2.9329182,-5.956612 -0.295525,-1.339273 -0.297868,-4.20007 -0.0045,-5.523063 1.0457132,-4.716205 3.7435092,-7.789125 8.4477872,-9.622438 4.411035,-1.719032 10.837037,-2.449961 21.577455,-2.454337 l 2.929872,-0.0013 1.865701,3.732923 c 1.026115,2.053066 1.865699,3.754264 1.865699,3.780077 0,0.02581 -1.201253,0.04727 -2.669455,0.04807 -12.892381,0.007 -19.928308,1.080393 -24.3816,3.719572 -3.19482,1.893364 -5.228577,4.80341 -6.028163,8.625525 -0.119563,0.571527 -0.219556,1.523535 -0.259477,2.470396 l -0.06495,1.540534 z"
       id="path1558"
       sodipodi:nodetypes="ssssscsssssscs" />
    <path
       style="fill:#a8a74b;fill-opacity:1;fill-rule:nonzero;stroke:#000000;stroke-width:1.33635;stroke-opacity:0.718876"
       d="M 26.204199,87.231718 C 23.056305,86.973588 19.015316,86.132088 13.978844,84.6859 12.693835,84.316917 11.630522,84.003082 11.615927,83.988487 11.499708,83.872269 8.1059688,76.762738 8.1470838,76.721621 c 0.02934,-0.02934 0.886936,0.187442 1.9057692,0.481735 6.901307,1.993466 10.876684,2.637774 15.483172,2.509428 2.93437,-0.08176 4.34489,-0.30244 6.457895,-1.010362 3.525684,-1.181211 6.228558,-3.476908 7.814101,-6.636935 1.379145,-2.748669 2.174935,-7.211836 1.857277,-10.416469 -0.06557,-0.661493 -0.102376,-1.223703 -0.08179,-1.249357 0.101875,-0.126955 1.473242,1.929098 1.992037,2.986609 1.10948,2.261555 1.670182,4.870185 1.671066,7.774556 0.0016,4.938569 -1.520399,9.194964 -4.267634,11.935513 -2.058292,2.053285 -4.974103,3.412349 -8.432064,3.930197 -1.726743,0.258591 -4.569833,0.350562 -6.342716,0.205182 z"
       id="path1560" />
    <path
       style="fill:#e2e011;fill-opacity:1;fill-rule:nonzero;stroke:#000000;stroke-width:1.33635;stroke-opacity:0.718876"
       d="M 40.59119,58.86857 C 40.28377,58.497688 38.303274,57.289913 37.036883,56.701035 35.363529,55.922916 33.260549,55.20579 29.023593,53.968466 23.712237,52.41738 21.68937,51.672713 19.660992,50.521855 17.422585,49.251834 15.66385,47.414297 14.57913,45.212297 c -0.555427,-1.127524 -1.208926,-3.129449 -1.113117,-3.40991 0.02359,-0.06904 0.432499,0.14582 0.908697,0.477472 1.992694,1.387827 4.582339,2.419932 10.164685,4.051139 7.847328,2.293056 10.314797,3.404743 12.638998,5.694341 1.466821,1.44498 2.49628,3.157876 3.247935,5.404176 0.44046,1.316294 0.500978,1.844558 0.164862,1.439055 z"
       id="path1562" />
    <g
       id="g1607"
       transform="translate(3.7797619,-0.37797619)">
      <path
         style="fill:#0d0d01;fill-opacity:1;stroke:#000000;stroke-width:0.264583px;stroke-linecap:butt;stroke-linejoin:miter;stroke-opacity:1"
         d="m 71.353229,47.000453 c 2.115934,-1.826459 6.147253,-4.565974 8.519389,-5.913429 2.372136,-1.347454 3.084837,-1.302911 3.418778,-0.478693 0.333942,0.824217 0.289399,2.4278 -0.04454,3.162695 -0.333937,0.734895 -0.957547,0.601264 -1.269518,0.178179 -0.311971,-0.423084 -0.311971,-1.13579 -0.556869,-1.447755 -0.244898,-0.311964 -0.734877,-0.222877 -2.873154,1.202591 -2.138276,1.425468 -5.924516,4.187197 -7.717492,5.111611 -1.792975,0.924413 -1.592529,0.01126 0.523404,-1.815199 z"
         id="path1570-2"
         inkscape:path-effect="#path-effect1595"
         inkscape:original-d="m 69.437789,47.913545 c 4.03158,-2.739248 8.0629,-5.478762 12.09395,-8.218538 0.713,0.04481 1.4257,0.08936 2.13815,0.133633 -0.0443,1.603915 -0.0888,3.207499 -0.13363,4.810853 -0.62338,-0.133374 -1.24699,-0.267005 -1.87089,-0.400905 2.7e-4,-0.712467 2.7e-4,-1.425173 0,-2.138156 -0.48974,0.08936 -0.97972,0.178445 -1.46998,0.267269 -3.78613,2.762107 -7.57237,5.523836 -11.35895,8.285355 0.20072,-0.912923 0.40116,-1.826077 0.60135,-2.739511 z" />
      <ellipse
         style="fill:#e2e011;fill-opacity:1;fill-rule:nonzero;stroke:#000000;stroke-width:1;stroke-miterlimit:4;stroke-dasharray:none;stroke-opacity:0.718876"
         id="path1564"
         cx="106.5069"
         cy="52.919365"
         rx="30.869631"
         ry="28.597837" />
      <path
         style="fill:#0d0d01;fill-opacity:1;stroke:#000000;stroke-width:0.264583px;stroke-linecap:butt;stroke-linejoin:miter;stroke-opacity:1"
         d="m 68.952381,47.456845 c 0,0 64.999999,0 64.999999,0 0,0 -5,15 -5,15 0,0 -18,0 -18,0 0,0 -7,-9 -7,-9 -0.83333,-1.666667 -1.66651,-3.333015 -2.49995,-3.333121 -0.83344,-1.06e-4 -1.666716,1.666454 -2.500049,3.333121 0,0 -7,9 -7,9 0,0 -18,0 -18,0 0,0 -5,-15 -5,-15 z"
         id="path1566"
         inkscape:path-effect="#path-effect1568"
         inkscape:original-d="m 68.952381,47.456845 h 64.999999 l -5,15 h -18 l -7,-9 c 0,0 -1.6664,-3.333069 -2.5,-5 -0.83307,1.666931 -2.499999,5 -2.499999,5 l -7,9 h -18 z"
         sodipodi:nodetypes="cccccscccc" />
      <path
         style="fill:#0d0d01;fill-opacity:1;stroke:#000000;stroke-width:0.264583px;stroke-linecap:butt;stroke-linejoin:miter;stroke-opacity:1"
         d="m 134.28067,47.000343 c 2.11593,-1.826459 6.14725,-4.565974 8.51939,-5.913429 2.37214,-1.347454 3.08484,-1.302911 3.41878,-0.478693 0.33394,0.824217 0.2894,2.4278 -0.0445,3.162695 -0.33394,0.734895 -0.95755,0.601264 -1.26952,0.178179 -0.31197,-0.423084 -0.31197,-1.13579 -0.55687,-1.447755 -0.2449,-0.311964 -0.73488,-0.222877 -2.87315,1.202591 -2.13828,1.425468 -5.92452,4.187197 -7.71749,5.111611 -1.79298,0.924413 -1.59253,0.01126 0.5234,-1.815199 z"
         id="path1570"
         inkscape:path-effect="#path-effect1572"
         inkscape:original-d="m 132.36523,47.913435 c 4.03158,-2.739248 8.0629,-5.478762 12.09395,-8.218538 0.713,0.04481 1.4257,0.08936 2.13815,0.133633 -0.0443,1.603915 -0.0888,3.207499 -0.13363,4.810853 -0.62338,-0.133374 -1.24699,-0.267005 -1.87089,-0.400905 2.7e-4,-0.712467 2.7e-4,-1.425173 0,-2.138156 -0.48974,0.08936 -0.97972,0.178445 -1.46998,0.267269 -3.78613,2.762107 -7.57237,5.523836 -11.35895,8.285355 0.20072,-0.912923 0.40116,-1.826077 0.60135,-2.739511 z" />
    </g>
    <path
       style="fill:none;stroke:#000000;stroke-width:0.264583px;stroke-linecap:butt;stroke-linejoin:miter;stroke-opacity:1"
       d="m 177.45544,21.59396 c 0,21.292606 0,42.58468 0,63.87702 11.31437,0 22.629,0 33.9431,0"
       id="path1609"
       inkscape:path-effect="#path-effect1611"
       inkscape:original-d="m 177.45544,21.59396 c 2.6e-4,21.292606 0,63.87702 0,63.87702 0,0 22.629,2.65e-4 33.9431,0"
       sodipodi:nodetypes="ccc" />
    <path
       style="fill:none;stroke:#000000;stroke-width:0.264583px;stroke-linecap:butt;stroke-linejoin:miter;stroke-opacity:1"
       d="m 170.72344,14.080538 c 0,21.292769 0,42.585007 0,63.87751 m 6.74856,0 c 9.06485,-2.3e-5 18.12996,-4.5e-5 27.19454,-6.8e-5"
       id="path1609-6"
       inkscape:path-effect="#path-effect1672"
       inkscape:original-d="m 170.72344,14.080538 c 2.6e-4,21.292769 0,63.87751 0,63.87751 m 6.74856,0 c 0,0 18.12996,2.19e-4 27.19454,-6.8e-5"
       sodipodi:nodetypes="cccc" />
    <path
       style="fill:none;stroke:#000000;stroke-width:0.264583px;stroke-linecap:butt;stroke-linejoin:miter;stroke-opacity:1"
       d="m 170.72344,14.08096 c 2.24425,2.504609 4.48825,5.008943 6.732,7.513"
       id="path1675"
       inkscape:path-effect="#path-effect1677"
       inkscape:original-d="m 170.72344,14.08096 c 2.24426,2.504598 4.48826,5.008931 6.732,7.513" />
    <path
       style="fill:none;stroke:#000000;stroke-width:0.264583px;stroke-linecap:butt;stroke-linejoin:miter;stroke-opacity:1"
       d="m 204.66654,77.95798 c 2.24425,2.504608 4.48825,5.008942 6.732,7.513"
       id="path1679"
       inkscape:path-effect="#path-effect1681"
       inkscape:original-d="m 204.66654,77.95798 c 2.24426,2.504596 4.48826,5.00893 6.732,7.513" />
    <path
       style="fill:none;stroke:#000000;stroke-width:0.264583px;stroke-linecap:butt;stroke-linejoin:miter;stroke-opacity:1"
       d="m 170.72344,77.95798 c 2.24425,2.504608 4.48825,5.008942 6.732,7.513"
       id="path1683"
       inkscape:path-effect="#path-effect1685"
       inkscape:original-d="m 170.72344,77.95798 c 2.24426,2.504596 4.48826,5.00893 6.732,7.513" />
    <path
       style="fill:#e2e011;fill-opacity:1;fill-rule:nonzero;stroke:#000000;stroke-width:0.945;stroke-miterlimit:4;stroke-dasharray:none;stroke-opacity:0.718876"
       d="M 174.12278,81.734884 170.9456,78.281337 V 46.486008 14.690682 l 1.02792,1.124014 c 0.56536,0.618208 2.01784,2.198382 3.22774,3.511499 l 2.19982,2.387485 0.003,31.737374 c 0.002,17.455557 -0.0212,31.737374 -0.0506,31.737374 -0.0294,0 -1.48316,-1.554095 -3.23061,-3.453544 z"
       id="path1687" />
    <path
       style="fill:#a8a74b;fill-opacity:1;fill-rule:nonzero;stroke:#000000;stroke-width:0.945;stroke-miterlimit:4;stroke-dasharray:none;stroke-opacity:0.718876"
       d="m 177.74331,81.748838 v -3.496279 l 13.4654,0.01413 13.46541,0.01413 2.17336,2.451605 c 1.19535,1.348383 2.58437,2.915346 3.08671,3.482139 l 0.91335,1.030534 h -16.55212 -16.55211 z"
       id="path1689" />
    <rect
       style="fill:#f4f36e;fill-opacity:1;fill-rule:nonzero;stroke:#000000;stroke-width:1;stroke-miterlimit:4;stroke-dasharray:none;stroke-opacity:0.718876"
       id="rect1691"
       width="6.1471992"
       height="14.165285"
       x="105.57146"
       y="3.7417734" />
  </g>
</svg>
