<?xml version="1.0" encoding="UTF-8"?>
<svg width="210mm" height="297mm" version="1.1" viewBox="0 0 210 297" xmlns="http://www.w3.org/2000/svg" xmlns:cc="http://creativecommons.org/ns#" xmlns:dc="http://purl.org/dc/elements/1.1/" xmlns:rdf="http://www.w3.org/1999/02/22-rdf-syntax-ns#">
 <metadata>
  <rdf:RDF>
   <cc:Work rdf:about="">
    <dc:format>image/svg+xml</dc:format>
    <dc:type rdf:resource="http://purl.org/dc/dcmitype/StillImage"/>
    <dc:title/>
   </cc:Work>
  </rdf:RDF>
 </metadata>
 <g transform="translate(-7.4839 1.1339)">
  <path d="m53.99 23.053c-11.666 0-23.333 0-29.166 5.0002s-5.8336 15 1e-6 20c5.8336 5 17.5 5 23.333 10 5.8333 5.0002 5.8333 15 2.8333 20.833s-8.9997 7.4999-14.833 7.5c-5.8334 7.1e-5 -11.5-1.6666-17.167-3.3333" style="fill:none;stroke-width:.26458px;stroke:#000"/>
  <path d="m50.037 15.132c-11.666 0-23.333 0-29.166 5.0002s-5.8336 15 1e-6 20c5.8336 5 17.5 5 23.333 10 5.8333 5.0002 5.8333 15 2.8333 20.833s-8.9997 7.4999-14.833 7.5c-5.8334 7.1e-5 -11.5-1.6666-17.167-3.3333" style="fill:none;stroke-width:.26458px;stroke:#000"/>
  <path d="m50.037 15.132c1.3176 2.6407 2.6351 5.2811 3.9524 7.9211" style="fill:none;stroke-width:.26458px;stroke:#000"/>
  <path d="m15.037 75.132c1.3176 2.6407 2.6351 5.2811 3.9524 7.9211" style="fill:none;stroke-width:.26458px;stroke:#000"/>
 </g>
 <path d="m12.4 39.999c-1.3102-1.363-2.4139-3.6047-2.9329-5.9566-0.29552-1.3393-0.29787-4.2001-0.0045-5.5231 1.0457-4.7162 3.7435-7.7891 8.4478-9.6224 4.411-1.719 10.837-2.45 21.577-2.4543l2.9299-0.0013 1.8657 3.7329c1.0261 2.0531 1.8657 3.7543 1.8657 3.7801 0 0.02581-1.2013 0.04727-2.6695 0.04807-12.892 7e-3 -19.928 1.0804-24.382 3.7196-3.1948 1.8934-5.2286 4.8034-6.0282 8.6255-0.11956 0.57153-0.21956 1.5235-0.25948 2.4704l-0.06495 1.5405z" style="fill:#a8a74b;stroke-opacity:.71888;stroke-width:.945;stroke:#000"/>
 <path d="m26.204 87.232c-3.1479-0.25813-7.1889-1.0996-12.225-2.5458-1.285-0.36898-2.3483-0.68282-2.3629-0.69741-0.11622-0.11622-3.51-7.2257-3.4688-7.2669 0.02934-0.02934 0.88694 0.18744 1.9058 0.48174 6.9013 1.9935 10.877 2.6378 15.483 2.5094 2.9344-0.08176 4.3449-0.30244 6.4579-1.0104 3.5257-1.1812 6.2286-3.4769 7.8141-6.6369 1.3791-2.7487 2.1749-7.2118 1.8573-10.416-0.06557-0.66149-0.10238-1.2237-0.08179-1.2494 0.10188-0.12696 1.4732 1.9291 1.992 2.9866 1.1095 2.2616 1.6702 4.8702 1.6711 7.7746 0.0016 4.9386-1.5204 9.195-4.2676 11.936-2.0583 2.0533-4.9741 3.4123-8.4321 3.9302-1.7267 0.25859-4.5698 0.35056-6.3427 0.20518z" style="fill:#a8a74b;stroke-opacity:.71888;stroke-width:1.3364;stroke:#000"/>
 <path d="m40.591 58.869c-0.30742-0.37088-2.2879-1.5787-3.5543-2.1675-1.6734-0.77812-3.7763-1.4952-8.0133-2.7326-5.3114-1.5511-7.3342-2.2958-9.3626-3.4466-2.2384-1.27-3.9971-3.1076-5.0819-5.3096-0.55543-1.1275-1.2089-3.1294-1.1131-3.4099 0.02359-0.06904 0.4325 0.14582 0.9087 0.47747 1.9927 1.3878 4.5823 2.4199 10.165 4.0511 7.8473 2.2931 10.315 3.4047 12.639 5.6943 1.4668 1.445 2.4963 3.1579 3.2479 5.4042 0.44046 1.3163 0.50098 1.8446 0.16486 1.4391z" style="fill:#e2e011;stroke-opacity:.71888;stroke-width:1.3364;stroke:#000"/>
 <g transform="translate(3.7798 -.37798)">
  <path d="m71.353 47c2.1159-1.8265 6.1473-4.566 8.5194-5.9134 2.3721-1.3475 3.0848-1.3029 3.4188-0.47869 0.33394 0.82422 0.2894 2.4278-0.04454 3.1627-0.33394 0.7349-0.95755 0.60126-1.2695 0.17818-0.31197-0.42308-0.31197-1.1358-0.55687-1.4478-0.2449-0.31196-0.73488-0.22288-2.8732 1.2026-2.1383 1.4255-5.9245 4.1872-7.7175 5.1116-1.793 0.92441-1.5925 0.01126 0.5234-1.8152z" style="fill:#0d0d01;stroke-width:.26458px;stroke:#000"/>
  <ellipse cx="106.51" cy="52.919" rx="30.87" ry="28.598" style="fill:#e2e011;stroke-opacity:.71888;stroke:#000"/>
  <path d="m68.952 47.457h65l-5 15h-18s-7-9-7-9c-0.83333-1.6667-1.6665-3.333-2.5-3.3331s-1.6667 1.6665-2.5 3.3331c0 0-7 9-7 9h-18l-5-15z" style="fill:#0d0d01;stroke-width:.26458px;stroke:#000"/>
  <path d="m134.28 47c2.1159-1.8265 6.1472-4.566 8.5194-5.9134 2.3721-1.3475 3.0848-1.3029 3.4188-0.47869 0.33394 0.82422 0.2894 2.4278-0.0445 3.1627-0.33394 0.7349-0.95755 0.60126-1.2695 0.17818-0.31197-0.42308-0.31197-1.1358-0.55687-1.4478-0.2449-0.31196-0.73488-0.22288-2.8732 1.2026-2.1383 1.4255-5.9245 4.1872-7.7175 5.1116-1.793 0.92441-1.5925 0.01126 0.5234-1.8152z" style="fill:#0d0d01;stroke-width:.26458px;stroke:#000"/>
 </g>
 <path d="m177.46 21.594v63.877h33.943" style="fill:none;stroke-width:.26458px;stroke:#000"/>
 <path d="m170.72 14.081v63.878m6.7486 0c9.0648-2.3e-5 18.13-4.5e-5 27.195-6.8e-5" style="fill:none;stroke-width:.26458px;stroke:#000"/>
 <path d="m170.72 14.081c2.2442 2.5046 4.4882 5.0089 6.732 7.513" style="fill:none;stroke-width:.26458px;stroke:#000"/>
 <path d="m204.67 77.958c2.2442 2.5046 4.4882 5.0089 6.732 7.513" style="fill:none;stroke-width:.26458px;stroke:#000"/>
 <path d="m170.72 77.958c2.2442 2.5046 4.4882 5.0089 6.732 7.513" style="fill:none;stroke-width:.26458px;stroke:#000"/>
 <path d="m174.12 81.735-3.1772-3.4535v-63.591l1.0279 1.124c0.56536 0.61821 2.0178 2.1984 3.2277 3.5115l2.1998 2.3875 3e-3 31.737c2e-3 17.456-0.0212 31.737-0.0506 31.737s-1.4832-1.5541-3.2306-3.4535z" style="fill:#e2e011;stroke-opacity:.71888;stroke-width:.945;stroke:#000"/>
 <path d="m177.74 81.749v-3.4963l26.931 0.02826 2.1734 2.4516c1.1954 1.3484 2.5844 2.9153 3.0867 3.4821l0.91335 1.0305h-33.104z" style="fill:#a8a74b;stroke-opacity:.71888;stroke-width:.945;stroke:#000"/>
 <rect x="105.57" y="3.7418" width="6.1472" height="14.165" style="fill:#f4f36e;stroke-opacity:.71888;stroke:#000"/>
</svg>
