<?xml version="1.0" encoding="UTF-8" standalone="no"?>
<svg
   xmlns:dc="http://purl.org/dc/elements/1.1/"
   xmlns:cc="http://creativecommons.org/ns#"
   xmlns:rdf="http://www.w3.org/1999/02/22-rdf-syntax-ns#"
   xmlns:svg="http://www.w3.org/2000/svg"
   xmlns="http://www.w3.org/2000/svg"
   xmlns:sodipodi="http://sodipodi.sourceforge.net/DTD/sodipodi-0.dtd"
   xmlns:inkscape="http://www.inkscape.org/namespaces/inkscape"
   width="189.18483mm"
   height="33.217873mm"
   viewBox="0 0 189.18483 33.217873"
   version="1.1"
   id="svg8"
   inkscape:version="1.0.2-2 (e86c870879, 2021-01-15)"
   sodipodi:docname="sol.svg">
  <defs
     id="defs2">
    <inkscape:path-effect
       effect="bspline"
       id="path-effect920"
       is_visible="true"
       lpeversion="1"
       weight="33.333333"
       steps="2"
       helper_size="0"
       apply_no_weight="true"
       apply_with_weight="true"
       only_selected="false" />
    <inkscape:path-effect
       effect="bspline"
       id="path-effect912"
       is_visible="true"
       lpeversion="1"
       weight="33.333333"
       steps="2"
       helper_size="0"
       apply_no_weight="true"
       apply_with_weight="true"
       only_selected="false" />
    <inkscape:path-effect
       effect="powerstroke"
       id="path-effect908"
       is_visible="true"
       lpeversion="1"
       offset_points="0,0.1322915"
       sort_points="true"
       interpolator_type="CubicBezierJohan"
       interpolator_beta="0.2"
       start_linecap_type="zerowidth"
       linejoin_type="extrp_arc"
       miter_limit="4"
       scale_width="1"
       end_linecap_type="zerowidth" />
    <inkscape:path-effect
       effect="powerstroke"
       id="path-effect886"
       is_visible="true"
       lpeversion="1"
       offset_points="0,0.1322915"
       sort_points="true"
       interpolator_type="CubicBezierJohan"
       interpolator_beta="0.2"
       start_linecap_type="zerowidth"
       linejoin_type="extrp_arc"
       miter_limit="4"
       scale_width="1"
       end_linecap_type="zerowidth" />
    <inkscape:path-effect
       effect="bspline"
       id="path-effect876"
       is_visible="true"
       lpeversion="1"
       weight="33.333333"
       steps="2"
       helper_size="0"
       apply_no_weight="true"
       apply_with_weight="true"
       only_selected="false" />
    <pattern
       id="EMFhbasepattern"
       patternUnits="userSpaceOnUse"
       width="6"
       height="6"
       x="0"
       y="0" />
  </defs>
  <sodipodi:namedview
     id="base"
     pagecolor="#ffffff"
     bordercolor="#666666"
     borderopacity="1.0"
     inkscape:pageopacity="0.0"
     inkscape:pageshadow="2"
     inkscape:zoom="1.4"
     inkscape:cx="365.42931"
     inkscape:cy="111.93225"
     inkscape:document-units="mm"
     inkscape:current-layer="layer1"
     inkscape:document-rotation="0"
     showgrid="false"
     inkscape:snap-nodes="false"
     inkscape:window-width="1920"
     inkscape:window-height="1017"
     inkscape:window-x="-8"
     inkscape:window-y="-8"
     inkscape:window-maximized="1"
     fit-margin-top="0"
     fit-margin-left="0"
     fit-margin-right="0"
     fit-margin-bottom="0" />
  <metadata
     id="metadata5">
    <rdf:RDF>
      <cc:Work
         rdf:about="">
        <dc:format>image/svg+xml</dc:format>
        <dc:type
           rdf:resource="http://purl.org/dc/dcmitype/StillImage" />
        <dc:title></dc:title>
      </cc:Work>
    </rdf:RDF>
  </metadata>
  <g
     inkscape:label="Sol"
     inkscape:groupmode="layer"
     id="layer1"
     transform="translate(-22.836542,-127.13793)">
    <g
       id="g950">
      <circle
         style="fill:#996f02;fill-opacity:1;stroke:#996f02;stroke-width:0.944999;stroke-opacity:1"
         id="path846-3"
         cx="80.715408"
         cy="143.7469"
         r="16.136398" />
      <path
         style="fill:#040405;fill-opacity:1;stroke:#040405;stroke-width:0.264583px;stroke-linecap:butt;stroke-linejoin:miter;stroke-opacity:1"
         d="m 60.278913,140.531 c 0,0 2.372802,-0.0936 3.230251,-0.0637 0.283748,0.01 0.165822,0.49333 0.178856,0.84703 0.03975,1.07867 0.07238,2.10525 0.0346,3.22562 -0.0077,0.22868 -0.562881,0.17725 -0.746979,0.0728 -0.08891,-0.0504 -0.103092,-0.17278 -0.103092,-0.17278 0,0 -0.03674,-1.44645 -0.04134,-2.18532 -5.6e-4,-0.0906 -0.0932,-0.19621 -0.183748,-0.20046 -0.689436,-0.0324 -1.568548,0.0234 -2.372016,0.0167 -0.130459,-0.001 -0.325923,-0.12256 -0.300678,-0.25056 0.102378,-0.51909 0.304143,-1.28938 0.304143,-1.28938 z"
         id="path916-4"
         sodipodi:nodetypes="csssscsssscc" />
      <circle
         style="fill:#ffd714;fill-opacity:1;stroke:#ffd714;stroke-width:0.944999;stroke-opacity:1"
         id="path846"
         cx="79.011551"
         cy="143.74683"
         r="16.136398" />
      <path
         style="fill:#18191a;fill-opacity:1;stroke:#18191a;stroke-width:0.266921px;stroke-linecap:butt;stroke-linejoin:miter;stroke-opacity:1"
         d="m 60.001983,140.53058 2.525165,7.99718 H 73 l 3.2,-4.29676 c 0,0 0.402782,-0.64894 0.726037,-1.306 0.323255,-0.65707 0.566983,-1.32227 1.099324,-1.31539 0.523106,0.007 0.813007,0.66173 1.113871,1.31539 0.300865,0.65366 0.612694,1.306 0.612694,1.306 L 83,148.52776 h 10.529167 l 2.106684,-7.99718 z"
         id="path870"
         sodipodi:nodetypes="ccccscsccccc" />
      <path
         style="fill:#040405;fill-opacity:1;stroke:#040405;stroke-width:0.264583px;stroke-linecap:butt;stroke-linejoin:miter;stroke-opacity:1"
         d="m 95.635849,140.53058 c 0,0 2.372802,-0.0936 3.230251,-0.0637 0.283748,0.01 0.165822,0.49333 0.178856,0.84703 0.03975,1.07867 0.07238,2.10525 0.0346,3.22562 -0.0077,0.22868 -0.562881,0.17725 -0.746979,0.0728 -0.08891,-0.0504 -0.103092,-0.17278 -0.103092,-0.17278 0,0 -0.03674,-1.44645 -0.04134,-2.18532 -5.6e-4,-0.0906 -0.0932,-0.19621 -0.183748,-0.20046 -0.689436,-0.0324 -1.568548,0.0234 -2.372016,0.0167 -0.130459,-0.001 -0.325923,-0.12256 -0.300678,-0.25056 0.102378,-0.51909 0.304143,-1.28938 0.304143,-1.28938 z"
         id="path916"
         sodipodi:nodetypes="csssscsssscc" />
      <path
         style="fill:#121314;fill-opacity:1;stroke:#121314;stroke-width:0.264583px;stroke-linecap:butt;stroke-linejoin:miter;stroke-opacity:1"
         d="m 87.079687,151.12363 c 0.08835,0.089 0.264778,0.26681 0.407668,0.46757 0.142891,0.20076 0.252329,0.42441 0.25591,0.58873 0.0036,0.16431 -0.09855,0.26954 -0.219093,0.24434 -0.120544,-0.0252 -0.259747,-0.18111 -0.410114,-0.38711 -0.150367,-0.20601 -0.311841,-0.46214 -0.370424,-0.64043 -0.05858,-0.17829 -0.01405,-0.27848 0.04459,-0.32586 0.05864,-0.0474 0.131014,-0.0418 0.167064,-0.039 0.03605,0.003 0.03605,0.003 0.1244,0.0918 z"
         id="path874"
         inkscape:path-effect="#path-effect876"
         inkscape:original-d="m 86.991338,151.03461 c 0.176697,0.17805 0.353127,0.35583 0.529298,0.53335 0.109718,0.22395 0.219158,0.4476 0.328356,0.67104 -0.10188,0.1055 -0.204008,0.21073 -0.30641,0.3157 -0.138941,-0.15564 -0.278141,-0.31155 -0.417608,-0.46772 -0.161216,-0.25587 -0.322689,-0.512 -0.484428,-0.7684 0.04481,-0.1 0.08936,-0.20019 0.133635,-0.30068 0.07265,0.006 0.145037,0.0114 0.217157,0.0167 z"
         sodipodi:nodetypes="sccccccss" />
      <path
         style="fill:#121314;fill-opacity:1;stroke:none;stroke-width:0.264583px;stroke-linecap:butt;stroke-linejoin:miter;stroke-opacity:1"
         d="m 86.554605,151.78104 c -0.273611,0.18897 -0.820889,0.56695 -1.415406,0.93902 -0.594516,0.37207 -1.236274,0.73822 -1.901636,1.02958 -0.665363,0.29136 -1.354369,0.5079 -2.106369,0.68706 -0.752,0.17915 -1.566993,0.32089 -2.42531,0.43114 -0.858317,0.11025 -1.75993,0.189 -2.598572,0.26183 -0.838642,0.0728 -1.614266,0.13978 -2.039549,0.18898 -0.425283,0.0492 -0.500092,0.0807 -0.501959,0.11427 -0.0019,0.0336 0.06899,0.069 0.626095,0.0768 0.557108,0.008 1.600458,-0.0119 2.836753,-0.12021 1.236294,-0.1083 2.665489,-0.30516 3.744278,-0.51188 1.078788,-0.20671 1.807145,-0.42325 2.507957,-0.70477 0.700812,-0.28152 1.374071,-0.62799 2.019761,-1.01384 0.64569,-0.38585 1.263828,-0.81106 1.570915,-1.0629 0.307086,-0.25184 0.303154,-0.33056 0.24425,-0.38577 -0.0589,-0.0552 -0.173083,-0.0867 -0.230334,-0.10252 -0.05725,-0.0158 -0.05726,-0.0157 -0.330874,0.17322 z"
         id="path910"
         inkscape:path-effect="#path-effect912"
         inkscape:original-d="m 86.828216,151.59207 c -0.547013,0.37824 -1.09429,0.75622 -1.641832,1.13393 -0.641522,0.36644 -1.283279,0.7326 -1.925317,1.0985 -0.688769,0.21681 -1.377773,0.43336 -2.067058,0.64964 -0.814763,0.14201 -1.629756,0.28375 -2.445033,0.42523 -0.901385,0.079 -1.802997,0.15775 -2.704891,0.23623 -0.77539,0.0672 -1.551014,0.13413 -2.326917,0.2008 -0.07454,0.0318 -0.14935,0.0633 -0.224423,0.0945 0.07114,0.0357 0.142005,0.0711 0.212612,0.1063 1.043656,-0.0194 2.087006,-0.0391 3.130116,-0.0591 1.429514,-0.1966 2.858709,-0.39346 4.287665,-0.59059 0.728673,-0.21629 1.457032,-0.43282 2.185175,-0.64964 0.67355,-0.34622 1.346806,-0.6927 2.019811,-1.03944 0.618426,-0.42496 1.236562,-0.85018 1.854446,-1.27567 -0.0037,-0.0785 -0.0076,-0.15722 -0.0118,-0.23623 -0.113919,-0.0312 -0.228098,-0.0627 -0.342543,-0.0945 z"
         sodipodi:nodetypes="scccccccccccccccs" />
      <path
         style="fill:#1c1d1e;fill-opacity:1;stroke:none;stroke-width:0.264583px;stroke-linecap:butt;stroke-linejoin:miter;stroke-opacity:1"
         d="m 98.670621,143.20928 c 0.06018,0.003 0.180273,0.009 0.251029,0.0769 0.07076,0.0681 0.09241,0.19798 0.101242,0.42435 0.0088,0.22638 0.0049,0.54923 -0.04327,0.7292 -0.04816,0.17997 -0.140689,0.21738 -0.247899,0.22727 -0.10721,0.01 -0.229263,-0.008 -0.298279,-0.053 -0.06901,-0.0451 -0.08476,-0.11796 -0.08971,-0.33552 -0.005,-0.21756 9.55e-4,-0.57978 0.0246,-0.77876 0.02365,-0.19898 0.06497,-0.2344 0.108408,-0.25606 0.04344,-0.0217 0.08866,-0.0295 0.111186,-0.0334 0.02253,-0.004 0.02251,-0.004 0.08269,-0.001 z"
         id="path918"
         inkscape:path-effect="#path-effect920"
         inkscape:original-d="m 98.610443,143.20632 c 0.120351,0.006 0.240437,0.0121 0.360259,0.0177 0.02193,0.1302 0.04358,0.26012 0.06496,0.38979 -0.0037,0.32312 -0.0076,0.64597 -0.0118,0.96856 -0.09226,0.0377 -0.184785,0.0751 -0.277577,0.11221 -0.12179,-0.0175 -0.243843,-0.0352 -0.366162,-0.0531 -0.01548,-0.0726 -0.03123,-0.14541 -0.04725,-0.21851 0.0062,-0.36198 0.01207,-0.7242 0.01773,-1.08669 0.04161,-0.0352 0.08295,-0.0706 0.124023,-0.1063 0.04554,-0.008 0.09082,-0.0155 0.135835,-0.0236 z" />
    </g>
    <g
       aria-label="s  l.fo"
       id="text1440-5"
       style="font-size:42.3333px;line-height:1.25;font-family:'Cascadia Code';-inkscape-font-specification:'Cascadia Code';fill:#996f02;fill-opacity:1;stroke-width:0.940524"
       transform="translate(10)">
      <path
         d="m 21.907243,159.59366 q -2.521808,0 -4.299476,-0.14469 -1.756998,-0.14469 -3.183266,-0.47542 l 0.496093,-3.96875 q 4.216794,0.66146 6.986649,0.66146 3.307289,0 4.81624,-0.64079 1.50895,-0.66146 1.50895,-2.08773 0,-0.95084 -0.516764,-1.44694 -0.496093,-0.49609 -1.632974,-0.78548 l -5.043616,-1.28157 q -2.108397,-0.53744 -3.369301,-1.24023 -1.260904,-0.7028 -1.88102,-1.77767 -0.620117,-1.09554 -0.620117,-2.72852 0,-2.41845 1.157551,-3.90673 1.178222,-1.50895 3.638018,-2.21175 2.480467,-0.7028 6.449214,-0.7028 3.017902,0 5.787756,0.41341 l -0.454752,3.80338 q -3.121254,-0.28938 -5.457027,-0.28938 -3.472654,0 -5.022946,0.64078 -1.550291,0.62012 -1.550291,2.04639 0,0.9095 0.537434,1.36426 0.537435,0.45475 1.819009,0.78548 l 4.051429,0.99218 q 2.356444,0.57878 3.803383,1.36426 1.446939,0.78548 2.149738,1.9637 0.702799,1.17822 0.702799,2.91455 0,2.37712 -1.136881,3.8654 -1.13688,1.46761 -3.534665,2.1704 -2.377114,0.7028 -6.201167,0.7028 z"
         style="font-size:42.3333px;fill:#996f02;fill-opacity:1;stroke-width:0.940524"
         id="path1505" />
      <path
         d="m 127.60737,158.7255 q -1.65365,0.45475 -3.20394,0.66146 -1.55029,0.2067 -3.32796,0.2067 -2.56315,0 -4.13411,-0.9095 -1.57096,-0.90951 -2.3151,-2.8112 -0.74414,-1.90169 -0.74414,-4.96093 v -19.0996 h -6.44922 v -3.63801 h 10.83138 v 22.5309 q 0,1.86035 0.33073,2.91455 0.35139,1.03353 1.30224,1.55029 0.97152,0.4961 2.83187,0.4961 0.9095,0 1.94303,-0.18604 1.0542,-0.18603 2.43913,-0.59944 z"
         style="font-size:42.3333px;fill:#996f02;fill-opacity:1;stroke-width:0.940524"
         id="path1507" />
      <path
         d="m 142.8209,159.59366 q -0.82682,0 -1.52962,-0.41341 -0.7028,-0.41341 -1.11621,-1.11621 -0.41341,-0.7028 -0.41341,-1.52962 0,-0.82682 0.41341,-1.52962 0.41341,-0.7028 1.11621,-1.11621 0.7028,-0.41341 1.52962,-0.41341 0.82682,0 1.52962,0.41341 0.7028,0.41341 1.11621,1.11621 0.41341,0.7028 0.41341,1.52962 0,0.82682 -0.41341,1.52962 -0.41341,0.7028 -1.11621,1.11621 -0.7028,0.41341 -1.52962,0.41341 z"
         style="font-size:42.3333px;fill:#996f02;fill-opacity:1;stroke-width:0.940524"
         id="path1509" />
      <path
         d="m 173.7854,131.68841 q -5.87044,0 -5.87044,7.2347 v 3.30729 h 8.97102 v 3.63801 h -8.97102 v 13.31184 h -4.38216 v -13.31184 h -6.90396 v -3.63801 h 6.90396 v -3.10059 q 0,-5.70507 2.58382,-8.53694 2.58382,-2.83187 7.7928,-2.83187 2.35645,0 4.54753,0.41342 l -0.45476,3.80338 q -2.43912,-0.28939 -4.21679,-0.28939 z"
         style="font-size:42.3333px;fill:#996f02;fill-opacity:1;stroke-width:0.940524"
         id="path1511" />
      <path
         d="m 192.43023,159.59366 q -3.0179,0 -5.18831,-1.32291 -2.14974,-1.34359 -3.28662,-3.88607 -1.11621,-2.56315 -1.11621,-6.15982 0,-3.59668 1.11621,-6.13916 1.13688,-2.56315 3.28662,-3.88606 2.17041,-1.34359 5.18831,-1.34359 3.0179,0 5.16764,1.34359 2.17041,1.32291 3.28662,3.88606 1.13688,2.54248 1.13688,6.13916 0,3.59667 -1.13688,6.15982 -1.11621,2.54248 -3.28662,3.88607 -2.14974,1.32291 -5.16764,1.32291 z m 0,-3.9274 q 2.41846,0 3.7207,-1.92236 1.32292,-1.94304 1.32292,-5.51904 0,-3.57601 -1.32292,-5.49837 -1.30224,-1.94303 -3.7207,-1.94303 -2.41845,0 -3.74137,1.94303 -1.30224,1.92236 -1.30224,5.49837 0,3.576 1.30224,5.51904 1.32292,1.92236 3.74137,1.92236 z"
         style="font-size:42.3333px;fill:#996f02;fill-opacity:1;stroke-width:0.940524"
         id="path1513" />
    </g>
    <g
       aria-label="s  l.fo"
       id="text1440"
       style="font-size:42.3333px;line-height:1.25;font-family:'Cascadia Code';-inkscape-font-specification:'Cascadia Code';fill:#ffd714;fill-opacity:1;stroke-width:0.940524"
       transform="translate(10)">
      <path
         d="m 20.319283,159.59415 q -2.521808,0 -4.299476,-0.14469 -1.756997,-0.1447 -3.183265,-0.47543 l 0.496093,-3.96874 q 4.216794,0.66146 6.986648,0.66146 3.30729,0 4.81624,-0.64079 1.508951,-0.66146 1.508951,-2.08773 0,-0.95084 -0.516764,-1.44694 -0.496093,-0.49609 -1.632974,-0.78548 l -5.043616,-1.28157 q -2.108397,-0.53744 -3.369301,-1.24024 -1.260904,-0.7028 -1.881021,-1.77766 -0.620116,-1.09554 -0.620116,-2.72852 0,-2.41845 1.157551,-3.90673 1.178222,-1.50895 3.638018,-2.21175 2.480467,-0.7028 6.449214,-0.7028 3.017901,0 5.787756,0.41341 l -0.454752,3.80338 q -3.121254,-0.28939 -5.457027,-0.28939 -3.472654,0 -5.022946,0.64079 -1.550292,0.62012 -1.550292,2.04639 0,0.9095 0.537435,1.36425 0.537434,0.45476 1.819009,0.78548 l 4.051429,0.99219 q 2.356444,0.57878 3.803383,1.36426 1.446939,0.78548 2.149738,1.9637 0.702799,1.17822 0.702799,2.91455 0,2.37711 -1.136881,3.86539 -1.136881,1.46761 -3.534665,2.17041 -2.377114,0.7028 -6.201168,0.7028 z"
         style="font-size:42.3333px;fill:#ffd714;fill-opacity:1;stroke-width:0.940524"
         id="path1494" />
      <path
         d="m 126.01941,158.72599 q -1.65365,0.45475 -3.20394,0.66146 -1.55029,0.2067 -3.32796,0.2067 -2.56315,0 -4.13411,-0.9095 -1.57096,-0.90951 -2.3151,-2.8112 -0.74414,-1.90169 -0.74414,-4.96093 v -19.0996 h -6.44921 v -3.63802 h 10.83137 v 22.53091 q 0,1.86035 0.33073,2.91455 0.3514,1.03353 1.30224,1.55029 0.97152,0.4961 2.83187,0.4961 0.9095,0 1.94303,-0.18604 1.0542,-0.18603 2.43913,-0.59945 z"
         style="font-size:42.3333px;fill:#ffd714;fill-opacity:1;stroke-width:0.940524"
         id="path1496" />
      <path
         d="m 141.23294,159.59415 q -0.82682,0 -1.52962,-0.41341 -0.7028,-0.41341 -1.11621,-1.11621 -0.41341,-0.7028 -0.41341,-1.52962 0,-0.82682 0.41341,-1.52962 0.41341,-0.7028 1.11621,-1.11621 0.7028,-0.41341 1.52962,-0.41341 0.82683,0 1.52962,0.41341 0.7028,0.41341 1.11621,1.11621 0.41342,0.7028 0.41342,1.52962 0,0.82682 -0.41342,1.52962 -0.41341,0.7028 -1.11621,1.11621 -0.70279,0.41341 -1.52962,0.41341 z"
         style="font-size:42.3333px;fill:#ffd714;fill-opacity:1;stroke-width:0.940524"
         id="path1498" />
      <path
         d="m 172.19744,131.6889 q -5.87044,0 -5.87044,7.23469 v 3.30729 h 8.97102 v 3.63802 H 166.327 v 13.31184 h -4.38216 V 145.8689 h -6.90396 v -3.63802 h 6.90396 v -3.10058 q 0,-5.70507 2.58382,-8.53694 2.58382,-2.83187 7.7928,-2.83187 2.35645,0 4.54753,0.41341 l -0.45476,3.80339 q -2.43912,-0.28939 -4.21679,-0.28939 z"
         style="font-size:42.3333px;fill:#ffd714;fill-opacity:1;stroke-width:0.940524"
         id="path1500" />
      <path
         d="m 190.84227,159.59415 q -3.0179,0 -5.18831,-1.32291 -2.14974,-1.34359 -3.28662,-3.88607 -1.11621,-2.56315 -1.11621,-6.15983 0,-3.59667 1.11621,-6.13915 1.13688,-2.56315 3.28662,-3.88607 2.17041,-1.34358 5.18831,-1.34358 3.0179,0 5.16764,1.34358 2.17041,1.32292 3.28662,3.88607 1.13688,2.54248 1.13688,6.13915 0,3.59668 -1.13688,6.15983 -1.11621,2.54248 -3.28662,3.88607 -2.14974,1.32291 -5.16764,1.32291 z m 0,-3.9274 q 2.41846,0 3.7207,-1.92237 1.32292,-1.94303 1.32292,-5.51904 0,-3.576 -1.32292,-5.49836 -1.30224,-1.94304 -3.7207,-1.94304 -2.41845,0 -3.74137,1.94304 -1.30224,1.92236 -1.30224,5.49836 0,3.57601 1.30224,5.51904 1.32292,1.92237 3.74137,1.92237 z"
         style="font-size:42.3333px;fill:#ffd714;fill-opacity:1;stroke-width:0.940524"
         id="path1502" />
    </g>
  </g>
</svg>
