<?xml version="1.0" encoding="UTF-8" standalone="no"?>
<svg
   xmlns:dc="http://purl.org/dc/elements/1.1/"
   xmlns:cc="http://creativecommons.org/ns#"
   xmlns:rdf="http://www.w3.org/1999/02/22-rdf-syntax-ns#"
   xmlns:svg="http://www.w3.org/2000/svg"
   xmlns="http://www.w3.org/2000/svg"
   xmlns:sodipodi="http://sodipodi.sourceforge.net/DTD/sodipodi-0.dtd"
   xmlns:inkscape="http://www.inkscape.org/namespaces/inkscape"
   width="40mm"
   height="40mm"
   version="1.1"
   viewBox="0 0 40 40.000002"
   id="svg22"
   sodipodi:docname="sol3.svg"
   inkscape:version="1.0.2-2 (e86c870879, 2021-01-15)">
  <defs
     id="defs26" />
  <sodipodi:namedview
     pagecolor="#ffffff"
     bordercolor="#666666"
     borderopacity="1"
     objecttolerance="10"
     gridtolerance="10"
     guidetolerance="10"
     inkscape:pageopacity="0"
     inkscape:pageshadow="2"
     inkscape:window-width="1920"
     inkscape:window-height="1017"
     id="namedview24"
     showgrid="false"
     inkscape:zoom="2.3936627"
     inkscape:cx="56.589752"
     inkscape:cy="70.607829"
     inkscape:window-x="-8"
     inkscape:window-y="-8"
     inkscape:window-maximized="1"
     inkscape:current-layer="svg22" />
  <metadata
     id="metadata2">
    <rdf:RDF>
      <cc:Work
         rdf:about="">
        <dc:format>image/svg+xml</dc:format>
        <dc:type
           rdf:resource="http://purl.org/dc/dcmitype/StillImage" />
        <dc:title></dc:title>
      </cc:Work>
    </rdf:RDF>
  </metadata>
  <g
     transform="translate(-59.524403,-123.75)"
     id="g20">
    <circle
       cx="80.714996"
       cy="143.75"
       r="16.136"
       style="fill:#996f02;stroke:#996f02;stroke-width:0.945"
       id="circle4" />
    <path
       d="m 60.279,140.53 c 0,0 2.3728,-0.0936 3.2303,-0.0637 0.28375,0.01 0.16582,0.49333 0.17886,0.84703 0.03975,1.0787 0.07238,2.1052 0.0346,3.2256 -0.0077,0.22868 -0.56288,0.17725 -0.74698,0.0728 -0.08891,-0.0504 -0.10309,-0.17278 -0.10309,-0.17278 0,0 -0.03674,-1.4464 -0.04134,-2.1853 -5.6e-4,-0.0906 -0.0932,-0.19621 -0.18375,-0.20046 -0.68944,-0.0324 -1.5685,0.0234 -2.372,0.0167 -0.13046,-10e-4 -0.32592,-0.12256 -0.30068,-0.25056 0.10238,-0.51909 0.30414,-1.2894 0.30414,-1.2894 z"
       style="fill:#040405;stroke:#040405;stroke-width:0.26458px"
       id="path6" />
    <circle
       cx="79.012001"
       cy="143.75"
       r="16.136"
       style="fill:#ffd714;stroke:#ffd714;stroke-width:0.945"
       id="circle8" />
    <path
       d="m 60.002,140.53 2.5252,7.9972 h 10.473 l 3.2,-4.2968 c 0,0 0.40278,-0.64894 0.72604,-1.306 0.32326,-0.65707 0.56698,-1.3223 1.0993,-1.3154 0.52311,0.007 0.81301,0.66173 1.1139,1.3154 0.30086,0.65366 0.61269,1.306 0.61269,1.306 l 3.2481,4.2968 h 10.529 l 2.1067,-7.9972 z"
       style="fill:#18191a;stroke:#18191a;stroke-width:0.26692px"
       id="path10" />
    <path
       d="m 95.636,140.53 c 0,0 2.3728,-0.0936 3.2303,-0.0637 0.28375,0.01 0.16582,0.49333 0.17886,0.84703 0.03975,1.0787 0.07238,2.1052 0.0346,3.2256 -0.0077,0.22868 -0.56288,0.17725 -0.74698,0.0728 -0.08891,-0.0504 -0.10309,-0.17278 -0.10309,-0.17278 0,0 -0.03674,-1.4464 -0.04134,-2.1853 -5.6e-4,-0.0906 -0.0932,-0.19621 -0.18375,-0.20046 -0.68944,-0.0324 -1.5685,0.0234 -2.372,0.0167 -0.13046,-10e-4 -0.32592,-0.12256 -0.30068,-0.25056 0.10238,-0.51909 0.30414,-1.2894 0.30414,-1.2894 z"
       style="fill:#040405;stroke:#040405;stroke-width:0.26458px"
       id="path12" />
    <path
       d="m 87.08,151.12 c 0.08835,0.089 0.26478,0.26681 0.40767,0.46757 0.14289,0.20076 0.25233,0.42441 0.25591,0.58873 0.0036,0.16431 -0.09855,0.26954 -0.21909,0.24434 -0.12054,-0.0252 -0.25975,-0.18111 -0.41011,-0.38711 -0.15037,-0.20601 -0.31184,-0.46214 -0.37042,-0.64043 -0.05858,-0.17829 -0.01405,-0.27848 0.04459,-0.32586 0.05864,-0.0474 0.13101,-0.0418 0.16706,-0.039 0.03605,0.003 0.03605,0.003 0.1244,0.0918 z"
       style="fill:#121314;stroke:#121314;stroke-width:0.26458px"
       id="path14" />
    <path
       d="m 86.555,151.78 c -0.27361,0.18897 -0.82089,0.56695 -1.4154,0.93902 -0.59452,0.37207 -1.2363,0.73822 -1.9016,1.0296 -0.66536,0.29136 -1.3544,0.5079 -2.1064,0.68706 -0.752,0.17915 -1.567,0.32089 -2.4253,0.43114 -0.8583,0.11025 -1.7599,0.189 -2.5986,0.26183 -0.83864,0.0728 -1.6143,0.13978 -2.0395,0.18898 -0.4252,0.0492 -0.50009,0.0807 -0.50196,0.11427 -0.0019,0.0336 0.06899,0.069 0.6261,0.0768 0.55711,0.008 1.6005,-0.0119 2.8368,-0.12021 1.2363,-0.1083 2.6655,-0.30516 3.7443,-0.51188 1.0788,-0.20671 1.8071,-0.42325 2.508,-0.70477 0.7009,-0.28152 1.3741,-0.62799 2.0198,-1.0138 0.6457,-0.38581 1.2638,-0.81106 1.5709,-1.0629 0.30709,-0.25184 0.30315,-0.33056 0.24425,-0.38577 -0.0589,-0.0552 -0.17308,-0.0867 -0.23033,-0.10252 -0.05725,-0.0158 -0.05726,-0.0157 -0.33087,0.17322 z"
       style="fill:#121314"
       id="path16" />
    <path
       d="m 98.671,143.21 c 0.06018,0.003 0.18027,0.009 0.25103,0.0769 0.07076,0.0681 0.09241,0.19798 0.10124,0.42435 0.0088,0.22638 0.0049,0.54923 -0.04327,0.7292 -0.04816,0.17997 -0.14069,0.21738 -0.2479,0.22727 -0.10721,0.01 -0.22926,-0.008 -0.29828,-0.053 -0.06901,-0.0451 -0.08476,-0.11796 -0.08971,-0.33552 -0.005,-0.21756 9.55e-4,-0.57978 0.0246,-0.77876 0.02365,-0.19898 0.06497,-0.2344 0.10841,-0.25606 0.04344,-0.0217 0.08866,-0.0295 0.11119,-0.0334 0.02253,-0.004 0.02251,-0.004 0.08269,-0.001 z"
       style="fill:#1c1d1e"
       id="path18" />
  </g>
</svg>
