<?xml version="1.0" encoding="UTF-8"?>
<svg width="189.18mm" height="33.218mm" version="1.1" viewBox="0 0 189.18 33.218" xmlns="http://www.w3.org/2000/svg" xmlns:cc="http://creativecommons.org/ns#" xmlns:dc="http://purl.org/dc/elements/1.1/" xmlns:rdf="http://www.w3.org/1999/02/22-rdf-syntax-ns#">
 <metadata>
  <rdf:RDF>
   <cc:Work rdf:about="">
    <dc:format>image/svg+xml</dc:format>
    <dc:type rdf:resource="http://purl.org/dc/dcmitype/StillImage"/>
    <dc:title/>
   </cc:Work>
  </rdf:RDF>
 </metadata>
 <g transform="translate(-22.837 -127.14)">
  <g transform="translate(10)" style="fill:#996f02;stroke-width:.94052" aria-label="s  l.fo">
   <path d="m21.907 159.59q-2.5218 0-4.2995-0.14469-1.757-0.14469-3.1833-0.47542l0.49609-3.9688q4.2168 0.66146 6.9866 0.66146 3.3073 0 4.8162-0.64079 1.509-0.66146 1.509-2.0877 0-0.95084-0.51676-1.4469-0.49609-0.49609-1.633-0.78548l-5.0436-1.2816q-2.1084-0.53744-3.3693-1.2402-1.2609-0.7028-1.881-1.7777-0.62012-1.0955-0.62012-2.7285 0-2.4184 1.1576-3.9067 1.1782-1.509 3.638-2.2118 2.4805-0.7028 6.4492-0.7028 3.0179 0 5.7878 0.41341l-0.45475 3.8034q-3.1213-0.28938-5.457-0.28938-3.4727 0-5.0229 0.64078-1.5503 0.62012-1.5503 2.0464 0 0.9095 0.53743 1.3643 0.53744 0.45475 1.819 0.78548l4.0514 0.99218q2.3564 0.57878 3.8034 1.3643t2.1497 1.9637 0.7028 2.9146q0 2.3771-1.1369 3.8654-1.1369 1.4676-3.5347 2.1704-2.3771 0.7028-6.2012 0.7028z" style="fill:#996f02;stroke-width:.94052"/>
   <path d="m127.61 158.73q-1.6536 0.45475-3.2039 0.66146-1.5503 0.2067-3.328 0.2067-2.5632 0-4.1341-0.9095-1.571-0.90951-2.3151-2.8112t-0.74414-4.9609v-19.1h-6.4492v-3.638h10.831v22.531q0 1.8604 0.33073 2.9146 0.35139 1.0335 1.3022 1.5503 0.97152 0.4961 2.8319 0.4961 0.9095 0 1.943-0.18604 1.0542-0.18603 2.4391-0.59944z" style="fill:#996f02;stroke-width:.94052"/>
   <path d="m142.82 159.59q-0.82682 0-1.5296-0.41341t-1.1162-1.1162-0.41341-1.5296 0.41341-1.5296 1.1162-1.1162 1.5296-0.41341 1.5296 0.41341 1.1162 1.1162 0.41341 1.5296-0.41341 1.5296-1.1162 1.1162-1.5296 0.41341z" style="fill:#996f02;stroke-width:.94052"/>
   <path d="m173.79 131.69q-5.8704 0-5.8704 7.2347v3.3073h8.971v3.638h-8.971v13.312h-4.3822v-13.312h-6.904v-3.638h6.904v-3.1006q0-5.7051 2.5838-8.5369t7.7928-2.8319q2.3564 0 4.5475 0.41342l-0.45476 3.8034q-2.4391-0.28939-4.2168-0.28939z" style="fill:#996f02;stroke-width:.94052"/>
   <path d="m192.43 159.59q-3.0179 0-5.1883-1.3229-2.1497-1.3436-3.2866-3.8861-1.1162-2.5632-1.1162-6.1598 0-3.5967 1.1162-6.1392 1.1369-2.5632 3.2866-3.8861 2.1704-1.3436 5.1883-1.3436t5.1676 1.3436q2.1704 1.3229 3.2866 3.8861 1.1369 2.5425 1.1369 6.1392 0 3.5967-1.1369 6.1598-1.1162 2.5425-3.2866 3.8861-2.1497 1.3229-5.1676 1.3229zm0-3.9274q2.4185 0 3.7207-1.9224 1.3229-1.943 1.3229-5.519 0-3.576-1.3229-5.4984-1.3022-1.943-3.7207-1.943-2.4184 0-3.7414 1.943-1.3022 1.9224-1.3022 5.4984 0 3.576 1.3022 5.519 1.3229 1.9224 3.7414 1.9224z" style="fill:#996f02;stroke-width:.94052"/>
  </g>
  <g transform="translate(10)" style="fill:#ffd714;stroke-width:.94052" aria-label="s  l.fo">
   <path d="m20.319 159.59q-2.5218 0-4.2995-0.14469-1.757-0.1447-3.1833-0.47543l0.49609-3.9687q4.2168 0.66146 6.9866 0.66146 3.3073 0 4.8162-0.64079 1.509-0.66146 1.509-2.0877 0-0.95084-0.51676-1.4469-0.49609-0.49609-1.633-0.78548l-5.0436-1.2816q-2.1084-0.53744-3.3693-1.2402t-1.881-1.7777q-0.62012-1.0955-0.62012-2.7285 0-2.4184 1.1576-3.9067 1.1782-1.509 3.638-2.2118 2.4805-0.7028 6.4492-0.7028 3.0179 0 5.7878 0.41341l-0.45475 3.8034q-3.1213-0.28939-5.457-0.28939-3.4727 0-5.0229 0.64079-1.5503 0.62012-1.5503 2.0464 0 0.9095 0.53744 1.3642 0.53743 0.45476 1.819 0.78548l4.0514 0.99219q2.3564 0.57878 3.8034 1.3643t2.1497 1.9637 0.7028 2.9146q0 2.3771-1.1369 3.8654-1.1369 1.4676-3.5347 2.1704-2.3771 0.7028-6.2012 0.7028z" style="fill:#ffd714;stroke-width:.94052"/>
   <path d="m126.02 158.73q-1.6536 0.45475-3.2039 0.66146-1.5503 0.2067-3.328 0.2067-2.5632 0-4.1341-0.9095-1.571-0.90951-2.3151-2.8112t-0.74414-4.9609v-19.1h-6.4492v-3.638h10.831v22.531q0 1.8604 0.33073 2.9146 0.3514 1.0335 1.3022 1.5503 0.97152 0.4961 2.8319 0.4961 0.9095 0 1.943-0.18604 1.0542-0.18603 2.4391-0.59945z" style="fill:#ffd714;stroke-width:.94052"/>
   <path d="m141.23 159.59q-0.82682 0-1.5296-0.41341t-1.1162-1.1162-0.41341-1.5296 0.41341-1.5296 1.1162-1.1162 1.5296-0.41341q0.82683 0 1.5296 0.41341 0.7028 0.41341 1.1162 1.1162 0.41342 0.7028 0.41342 1.5296t-0.41342 1.5296q-0.41341 0.7028-1.1162 1.1162-0.70279 0.41341-1.5296 0.41341z" style="fill:#ffd714;stroke-width:.94052"/>
   <path d="m172.2 131.69q-5.8704 0-5.8704 7.2347v3.3073h8.971v3.638h-8.971v13.312h-4.3822v-13.312h-6.904v-3.638h6.904v-3.1006q0-5.7051 2.5838-8.5369t7.7928-2.8319q2.3564 0 4.5475 0.41341l-0.45476 3.8034q-2.4391-0.28939-4.2168-0.28939z" style="fill:#ffd714;stroke-width:.94052"/>
   <path d="m190.84 159.59q-3.0179 0-5.1883-1.3229-2.1497-1.3436-3.2866-3.8861-1.1162-2.5632-1.1162-6.1598 0-3.5967 1.1162-6.1392 1.1369-2.5632 3.2866-3.8861 2.1704-1.3436 5.1883-1.3436t5.1676 1.3436q2.1704 1.3229 3.2866 3.8861 1.1369 2.5425 1.1369 6.1392 0 3.5967-1.1369 6.1598-1.1162 2.5425-3.2866 3.8861-2.1497 1.3229-5.1676 1.3229zm0-3.9274q2.4185 0 3.7207-1.9224 1.3229-1.943 1.3229-5.519 0-3.576-1.3229-5.4984-1.3022-1.943-3.7207-1.943-2.4184 0-3.7414 1.943-1.3022 1.9224-1.3022 5.4984 0 3.576 1.3022 5.519 1.3229 1.9224 3.7414 1.9224z" style="fill:#ffd714;stroke-width:.94052"/>
  </g>
 </g>
</svg>
