<?xml version="1.0" encoding="UTF-8"?>
<svg width="135.13mm" height="25.192mm" version="1.1" viewBox="0 0 135.13 25.192" xmlns="http://www.w3.org/2000/svg" xmlns:cc="http://creativecommons.org/ns#" xmlns:dc="http://purl.org/dc/elements/1.1/" xmlns:rdf="http://www.w3.org/1999/02/22-rdf-syntax-ns#">
 <metadata>
  <rdf:RDF>
   <cc:Work rdf:about="">
    <dc:format>image/svg+xml</dc:format>
    <dc:type rdf:resource="http://purl.org/dc/dcmitype/StillImage"/>
    <dc:title/>
   </cc:Work>
  </rdf:RDF>
 </metadata>
 <g transform="translate(-27.254 -129.55)">
  <g transform="translate(1.5879 -.00023)" style="fill:#996f02;stroke-width:.84702" aria-label="Bokhald รณ">
   <path d="m36.088 142.07q3.4907 0.0496 5.3766 1.5385 1.9025 1.4889 1.9025 4.1855 0 2.0845-0.84371 3.5734-0.82717 1.4889-2.4319 2.2664-1.5882 0.77754-3.8381 0.77754h-8.9996v-23.492h6.9813q3.5734 0 5.5255 1.5551t1.9521 4.4005q0 2.1341-1.4558 3.4245t-4.1689 1.5716zm-5.5255-8.007v6.3692h3.0771q2.1837 0 3.3914-0.84372 1.2077-0.84371 1.2077-2.3822 0-1.5054-1.2573-2.3161-1.2573-0.82718-3.5734-0.82718zm4.7314 17.205q2.1837 0 3.3914-0.9926 1.2077-1.0092 1.2077-2.8124 0-1.8529-1.2738-2.862-1.2573-1.0257-3.5568-1.0257h-4.4998v7.6927z" style="fill:#996f02;stroke-width:.84702"/>
   <path d="m54.385 154.74q-2.4153 0-4.1524-1.0588-1.7205-1.0753-2.6304-3.1102-0.89334-2.0514-0.89334-4.9299t0.89334-4.9134q0.90989-2.0514 2.6304-3.1102 1.7371-1.0753 4.1524-1.0753 2.4153 0 4.1359 1.0753 1.7371 1.0588 2.6304 3.1102 0.90989 2.0348 0.90989 4.9134t-0.90989 4.9299q-0.89334 2.0348-2.6304 3.1102-1.7205 1.0588-4.1359 1.0588zm0-3.1432q1.9356 0 2.9778-1.5385 1.0588-1.5551 1.0588-4.4171t-1.0588-4.4006q-1.0422-1.5551-2.9778-1.5551-1.9356 0-2.9944 1.5551-1.0422 1.5385-1.0422 4.4006t1.0422 4.4171q1.0588 1.5385 2.9944 1.5385z" style="fill:#996f02;stroke-width:.84702"/>
   <path d="m78.836 154.41-4.2186-7.2129q-1.158 0.23161-2.3657 0.23161h-1.7867v6.9813h-3.5072v-24.815h3.5072v14.691h0.95952q2.2168 0 3.6065-0.72791t2.1837-2.3326q0.81063-1.6047 1.1911-4.3509h3.6396q-0.84371 6.3692-4.1524 8.8673l5.2773 8.6688z" style="fill:#996f02;stroke-width:.84702"/>
   <path d="m95.413 136.54q2.7793 0 4.3013 1.6874 1.522 1.6874 1.522 4.7645v11.415h-3.5072v-11.415q0-1.6544-0.82717-2.5642-0.82717-0.90989-2.3161-0.90989-4.1359 0-4.1359 5.0292v9.8599h-3.5072v-24.815h3.5072v10.455h0.33087q0.14889-1.7702 1.2904-2.6304 1.1415-0.8768 3.3418-0.8768z" style="fill:#996f02;stroke-width:.84702"/>
   <path d="m123.17 151.59v2.8124l-5.6248 0.16543-0.16544-3.8712h-0.34741q-0.18197 1.9852-1.6874 3.0109-1.4889 1.0257-3.987 1.0257-2.7462 0-4.2516-1.3069-1.5054-1.3235-1.5054-3.7554 0-2.7793 2.0183-4.2682 2.0348-1.4889 5.7571-1.4889 2.0183 0 3.4741 0.41358v-0.94297q0-1.7867-1.2242-2.6635-1.2077-0.8768-3.6726-1.0092l-4.202-0.19852 0.33087-2.9778 3.5403 0.13234q4.3344 0.16544 6.4519 1.9687 2.1176 1.8032 2.1176 5.2774v7.3122zm-11.25 0.33087q1.5551 0 2.6635-0.54594 1.125-0.54593 1.6874-1.4227 0.57902-0.8768 0.57902-1.8363v-1.0588q-0.82717-0.21506-1.6544-0.26469-0.81062-0.0662-2.0514-0.0662-2.0845 0-3.1598 0.66173-1.0753 0.66174-1.0753 1.9521 0 1.2738 0.761 1.9356 0.76099 0.6452 2.2499 0.6452z" style="fill:#996f02;stroke-width:.84702"/>
   <path d="m141.47 154.04q-1.3235 0.36396-2.5642 0.52939-1.2408 0.16544-2.6635 0.16544-2.0514 0-3.3087-0.72791t-1.8529-2.2499q-0.59557-1.522-0.59557-3.9704v-15.286h-5.1615v-2.9116h8.6688v18.032q0 1.4889 0.26469 2.3326 0.28124 0.82717 1.0422 1.2408 0.77754 0.39704 2.2664 0.39704 0.72791 0 1.5551-0.14889 0.84372-0.14889 1.9521-0.47976z" style="fill:#996f02;stroke-width:.84702"/>
   <path d="m160.79 129.59v24.815l-3.1432 0.16543-0.29779-2.8786h-0.39704q-0.16543 1.4889-1.4062 2.2664-1.2408 0.77754-3.259 0.77754-2.2168 0-3.7884-1.0257-1.5551-1.0422-2.3822-3.044-0.81063-2.0018-0.81063-4.8638 0-2.9282 0.81063-5.0127 0.82717-2.0845 2.3988-3.1598 1.5882-1.0919 3.805-1.0919 2.101 0 3.2425 0.8768 1.158 0.86025 1.3896 2.6304h0.33087v-10.455zm-7.9408 22.168q4.4336 0 4.4336-2.9778v-4.2351q0-5.0292-4.4667-5.0292-1.9356 0-2.9944 1.6378-1.0422 1.6378-1.0422 4.6487 0 2.9447 1.0257 4.4502t3.044 1.5054z" style="fill:#996f02;stroke-width:.84702"/>
   <path d="m61.177 130.41c0.15441 0.70585-0.28675 1.2904-1.3235 1.7536l-6.2534 2.8124-0.29778-0.69482 5.6248-4.1358c0.52939-0.39705 0.97055-0.59557 1.3235-0.59557 0.50733 0 0.81614 0.28675 0.92643 0.86026z" style="fill:#996f02;stroke-width:.84702"/>
  </g>
  <g style="fill:#ffd714;stroke-width:.84702" aria-label="Bokhald รณ">
   <path d="m36.088 142.07q3.4907 0.0496 5.3766 1.5385 1.9025 1.4889 1.9025 4.1855 0 2.0845-0.84371 3.5734-0.82717 1.4889-2.4319 2.2664-1.5882 0.77754-3.8381 0.77754h-8.9996v-23.492h6.9813q3.5734 0 5.5255 1.5551t1.9521 4.4005q0 2.1341-1.4558 3.4245t-4.1689 1.5716zm-5.5255-8.007v6.3692h3.0771q2.1837 0 3.3914-0.84372 1.2077-0.84371 1.2077-2.3822 0-1.5054-1.2573-2.3161-1.2573-0.82718-3.5734-0.82718zm4.7314 17.205q2.1837 0 3.3914-0.9926 1.2077-1.0092 1.2077-2.8124 0-1.8529-1.2738-2.862-1.2573-1.0257-3.5568-1.0257h-4.4998v7.6927z" style="fill:#ffd714;stroke-width:.84702"/>
   <path d="m54.385 154.74q-2.4153 0-4.1524-1.0588-1.7205-1.0753-2.6304-3.1102-0.89334-2.0514-0.89334-4.9299t0.89334-4.9134q0.90989-2.0514 2.6304-3.1102 1.7371-1.0753 4.1524-1.0753 2.4153 0 4.1359 1.0753 1.7371 1.0588 2.6304 3.1102 0.90989 2.0348 0.90989 4.9134t-0.90989 4.9299q-0.89334 2.0348-2.6304 3.1102-1.7205 1.0588-4.1359 1.0588zm0-3.1432q1.9356 0 2.9778-1.5385 1.0588-1.5551 1.0588-4.4171t-1.0588-4.4006q-1.0422-1.5551-2.9778-1.5551-1.9356 0-2.9944 1.5551-1.0422 1.5385-1.0422 4.4006t1.0422 4.4171q1.0588 1.5385 2.9944 1.5385z" style="fill:#ffd714;stroke-width:.84702"/>
   <path d="m78.836 154.41-4.2186-7.2129q-1.158 0.23161-2.3657 0.23161h-1.7867v6.9813h-3.5072v-24.815h3.5072v14.691h0.95952q2.2168 0 3.6065-0.72791t2.1837-2.3326q0.81063-1.6047 1.1911-4.3509h3.6396q-0.84371 6.3692-4.1524 8.8673l5.2773 8.6688z" style="fill:#ffd714;stroke-width:.84702"/>
   <path d="m95.413 136.54q2.7793 0 4.3013 1.6874 1.522 1.6874 1.522 4.7645v11.415h-3.5072v-11.415q0-1.6544-0.82717-2.5642-0.82717-0.90989-2.3161-0.90989-4.1359 0-4.1359 5.0292v9.8599h-3.5072v-24.815h3.5072v10.455h0.33087q0.14889-1.7702 1.2904-2.6304 1.1415-0.8768 3.3418-0.8768z" style="fill:#ffd714;stroke-width:.84702"/>
   <path d="m123.17 151.59v2.8124l-5.6248 0.16543-0.16544-3.8712h-0.34741q-0.18197 1.9852-1.6874 3.0109-1.4889 1.0257-3.987 1.0257-2.7462 0-4.2516-1.3069-1.5054-1.3235-1.5054-3.7554 0-2.7793 2.0183-4.2682 2.0348-1.4889 5.7571-1.4889 2.0183 0 3.4741 0.41358v-0.94297q0-1.7867-1.2242-2.6635-1.2077-0.8768-3.6726-1.0092l-4.202-0.19852 0.33087-2.9778 3.5403 0.13234q4.3344 0.16544 6.4519 1.9687 2.1176 1.8032 2.1176 5.2774v7.3122zm-11.25 0.33087q1.5551 0 2.6635-0.54594 1.125-0.54593 1.6874-1.4227 0.57902-0.8768 0.57902-1.8363v-1.0588q-0.82717-0.21506-1.6544-0.26469-0.81062-0.0662-2.0514-0.0662-2.0845 0-3.1598 0.66173-1.0753 0.66174-1.0753 1.9521 0 1.2738 0.761 1.9356 0.76099 0.6452 2.2499 0.6452z" style="fill:#ffd714;stroke-width:.84702"/>
   <path d="m141.47 154.04q-1.3235 0.36396-2.5642 0.52939-1.2408 0.16544-2.6635 0.16544-2.0514 0-3.3087-0.72791t-1.8529-2.2499q-0.59557-1.522-0.59557-3.9704v-15.286h-5.1615v-2.9116h8.6688v18.032q0 1.4889 0.26469 2.3326 0.28124 0.82717 1.0422 1.2408 0.77754 0.39704 2.2664 0.39704 0.72791 0 1.5551-0.14889 0.84372-0.14889 1.9521-0.47976z" style="fill:#ffd714;stroke-width:.84702"/>
   <path d="m160.79 129.59v24.815l-3.1432 0.16543-0.29779-2.8786h-0.39704q-0.16543 1.4889-1.4062 2.2664-1.2408 0.77754-3.259 0.77754-2.2168 0-3.7884-1.0257-1.5551-1.0422-2.3822-3.044-0.81063-2.0018-0.81063-4.8638 0-2.9282 0.81063-5.0127 0.82717-2.0845 2.3988-3.1598 1.5882-1.0919 3.805-1.0919 2.101 0 3.2425 0.8768 1.158 0.86025 1.3896 2.6304h0.33087v-10.455zm-7.9408 22.168q4.4336 0 4.4336-2.9778v-4.2351q0-5.0292-4.4667-5.0292-1.9356 0-2.9944 1.6378-1.0422 1.6378-1.0422 4.6487 0 2.9447 1.0257 4.4502t3.044 1.5054z" style="fill:#ffd714;stroke-width:.84702"/>
   <path d="m61.177 130.41c0.15441 0.70585-0.28675 1.2904-1.3235 1.7536l-6.2534 2.8124-0.29778-0.69482 5.6248-4.1358c0.52939-0.39705 0.97055-0.59557 1.3235-0.59557 0.50733 0 0.81614 0.28675 0.92643 0.86026z" style="fill:#ffd714;stroke-width:.84702"/>
  </g>
 </g>
</svg>
