<?xml version="1.0" encoding="UTF-8" standalone="no"?>
<svg
   xmlns:dc="http://purl.org/dc/elements/1.1/"
   xmlns:cc="http://creativecommons.org/ns#"
   xmlns:rdf="http://www.w3.org/1999/02/22-rdf-syntax-ns#"
   xmlns:svg="http://www.w3.org/2000/svg"
   xmlns="http://www.w3.org/2000/svg"
   xmlns:sodipodi="http://sodipodi.sourceforge.net/DTD/sodipodi-0.dtd"
   xmlns:inkscape="http://www.inkscape.org/namespaces/inkscape"
   width="135.12631mm"
   height="25.19194mm"
   viewBox="0 0 135.12631 25.191941"
   version="1.1"
   id="svg8"
   inkscape:version="1.0.2-2 (e86c870879, 2021-01-15)"
   sodipodi:docname="solbokhald.svg">
  <defs
     id="defs2">
    <inkscape:path-effect
       effect="bspline"
       id="path-effect920"
       is_visible="true"
       lpeversion="1"
       weight="33.333333"
       steps="2"
       helper_size="0"
       apply_no_weight="true"
       apply_with_weight="true"
       only_selected="false" />
    <inkscape:path-effect
       effect="bspline"
       id="path-effect912"
       is_visible="true"
       lpeversion="1"
       weight="33.333333"
       steps="2"
       helper_size="0"
       apply_no_weight="true"
       apply_with_weight="true"
       only_selected="false" />
    <inkscape:path-effect
       effect="powerstroke"
       id="path-effect908"
       is_visible="true"
       lpeversion="1"
       offset_points="0,0.1322915"
       sort_points="true"
       interpolator_type="CubicBezierJohan"
       interpolator_beta="0.2"
       start_linecap_type="zerowidth"
       linejoin_type="extrp_arc"
       miter_limit="4"
       scale_width="1"
       end_linecap_type="zerowidth" />
    <inkscape:path-effect
       effect="powerstroke"
       id="path-effect886"
       is_visible="true"
       lpeversion="1"
       offset_points="0,0.1322915"
       sort_points="true"
       interpolator_type="CubicBezierJohan"
       interpolator_beta="0.2"
       start_linecap_type="zerowidth"
       linejoin_type="extrp_arc"
       miter_limit="4"
       scale_width="1"
       end_linecap_type="zerowidth" />
    <inkscape:path-effect
       effect="bspline"
       id="path-effect876"
       is_visible="true"
       lpeversion="1"
       weight="33.333333"
       steps="2"
       helper_size="0"
       apply_no_weight="true"
       apply_with_weight="true"
       only_selected="false" />
    <pattern
       id="EMFhbasepattern"
       patternUnits="userSpaceOnUse"
       width="6"
       height="6"
       x="0"
       y="0" />
  </defs>
  <sodipodi:namedview
     id="base"
     pagecolor="#ffffff"
     bordercolor="#666666"
     borderopacity="1.0"
     inkscape:pageopacity="0.0"
     inkscape:pageshadow="2"
     inkscape:zoom="1.4"
     inkscape:cx="315.23975"
     inkscape:cy="66.532931"
     inkscape:document-units="mm"
     inkscape:current-layer="layer1"
     inkscape:document-rotation="0"
     showgrid="false"
     inkscape:snap-nodes="false"
     inkscape:window-width="1920"
     inkscape:window-height="1017"
     inkscape:window-x="-8"
     inkscape:window-y="-8"
     inkscape:window-maximized="1"
     fit-margin-top="0"
     fit-margin-left="0"
     fit-margin-right="0"
     fit-margin-bottom="0" />
  <metadata
     id="metadata5">
    <rdf:RDF>
      <cc:Work
         rdf:about="">
        <dc:format>image/svg+xml</dc:format>
        <dc:type
           rdf:resource="http://purl.org/dc/dcmitype/StillImage" />
        <dc:title></dc:title>
      </cc:Work>
    </rdf:RDF>
  </metadata>
  <g
     inkscape:label="Sol"
     inkscape:groupmode="layer"
     id="layer1"
     transform="translate(-27.254133,-129.54593)">
    <g
       aria-label="Bokhald รณ"
       id="text899-7"
       style="font-size:33.8809px;line-height:1.25;font-family:'Cascadia Code';-inkscape-font-specification:'Cascadia Code';fill:#996f02;fill-opacity:1;stroke-width:0.847025"
       transform="translate(1.587909,-2.3e-4)">
      <path
         d="m 36.088313,142.06561 q 3.490659,0.0496 5.376608,1.53854 1.902492,1.48891 1.902492,4.18548 0,2.08447 -0.843714,3.57338 -0.82717,1.48891 -2.431881,2.26645 -1.588167,0.77754 -3.838071,0.77754 h -8.999614 v -23.49164 h 6.981318 q 3.573377,0 5.525499,1.55508 1.952122,1.55508 1.952122,4.40054 0,2.1341 -1.45582,3.42449 -1.45582,1.29039 -4.168939,1.57162 z m -5.525499,-8.00701 v 6.36922 h 3.077075 q 2.183729,0 3.391398,-0.84372 1.207669,-0.84371 1.207669,-2.38225 0,-1.50545 -1.257299,-2.31607 -1.257299,-0.82718 -3.573376,-0.82718 z m 4.731415,17.20515 q 2.18373,0 3.391399,-0.9926 1.207669,-1.00915 1.207669,-2.81238 0,-1.85287 -1.273842,-2.86201 -1.2573,-1.0257 -3.556833,-1.0257 h -4.499808 v 7.69269 z"
         style="fill:#996f02;fill-opacity:1;stroke-width:0.847025"
         id="path901-2" />
      <path
         d="m 54.385323,154.73787 q -2.415337,0 -4.152395,-1.05878 -1.720515,-1.07532 -2.630402,-3.11016 -0.893344,-2.05139 -0.893344,-4.92994 0,-2.87855 0.893344,-4.91339 0.909887,-2.05138 2.630402,-3.11016 1.737058,-1.07532 4.152395,-1.07532 2.415338,0 4.135853,1.07532 1.737058,1.05878 2.630402,3.11016 0.909887,2.03484 0.909887,4.91339 0,2.87855 -0.909887,4.92994 -0.893344,2.03484 -2.630402,3.11016 -1.720515,1.05878 -4.135853,1.05878 z m 0,-3.14325 q 1.935579,0 2.977814,-1.53854 1.058778,-1.55508 1.058778,-4.41709 0,-2.86201 -1.058778,-4.40055 -1.042235,-1.55508 -2.977814,-1.55508 -1.935578,0 -2.994357,1.55508 -1.042234,1.53854 -1.042234,4.40055 0,2.86201 1.042234,4.41709 1.058779,1.53854 2.994357,1.53854 z"
         style="fill:#996f02;fill-opacity:1;stroke-width:0.847025"
         id="path903-0" />
      <path
         d="m 78.836482,154.407 -4.218569,-7.21293 q -1.158039,0.23161 -2.365708,0.23161 h -1.786688 v 6.98132 h -3.507203 v -24.81512 h 3.507203 v 14.69055 h 0.959518 q 2.216817,0 3.606463,-0.72791 1.389646,-0.72791 2.18373,-2.33262 0.810627,-1.60471 1.191125,-4.35092 h 3.63955 q -0.843714,6.36922 -4.152395,8.86727 l 5.277347,8.66875 z"
         style="fill:#996f02;fill-opacity:1;stroke-width:0.847025"
         id="path905-3" />
      <path
         d="m 95.41298,136.54012 q 2.779292,0 4.301286,1.68742 1.521994,1.68743 1.521994,4.76451 V 154.407 h -3.507203 v -11.41495 q 0,-1.65435 -0.82717,-2.56423 -0.827171,-0.90989 -2.316078,-0.90989 -4.135852,0 -4.135852,5.0292 v 9.85987 h -3.507203 v -24.81512 h 3.507203 v 10.45544 h 0.330868 q 0.148891,-1.77015 1.290386,-2.6304 1.141495,-0.8768 3.341769,-0.8768 z"
         style="fill:#996f02;fill-opacity:1;stroke-width:0.847025"
         id="path907-9" />
      <path
         d="m 123.17282,151.59462 v 2.81238 l -5.62476,0.16543 -0.16544,-3.87116 h -0.34741 q -0.18197,1.98521 -1.68742,3.0109 -1.48891,1.0257 -3.98697,1.0257 -2.7462,0 -4.25165,-1.30693 -1.50545,-1.32348 -1.50545,-3.75536 0,-2.77929 2.01829,-4.2682 2.03484,-1.4889 5.75711,-1.4889 2.0183,0 3.47412,0.41358 v -0.94297 q 0,-1.78669 -1.22422,-2.66349 -1.20767,-0.8768 -3.67263,-1.00915 l -4.20203,-0.19852 0.33087,-2.97781 3.54029,0.13234 q 4.33437,0.16544 6.45193,1.96867 2.11755,1.80323 2.11755,5.27735 v 7.31218 z m -11.24952,0.33087 q 1.55508,0 2.66349,-0.54594 1.12495,-0.54593 1.68743,-1.42273 0.57902,-0.8768 0.57902,-1.83632 v -1.05878 q -0.82717,-0.21506 -1.65435,-0.26469 -0.81062,-0.0662 -2.05138,-0.0662 -2.08447,0 -3.15979,0.66173 -1.07532,0.66174 -1.07532,1.95212 0,1.27385 0.761,1.93558 0.76099,0.6452 2.2499,0.6452 z"
         style="fill:#996f02;fill-opacity:1;stroke-width:0.847025"
         id="path909-9" />
      <path
         d="m 141.46983,154.04304 q -1.32348,0.36396 -2.56423,0.52939 -1.24076,0.16544 -2.66349,0.16544 -2.05138,0 -3.30868,-0.72791 -1.2573,-0.72791 -1.85286,-2.24991 -0.59557,-1.52199 -0.59557,-3.97042 v -15.28611 h -5.16154 v -2.91164 h 8.66875 v 18.03232 q 0,1.48891 0.26469,2.33262 0.28124,0.82717 1.04224,1.24076 0.77754,0.39704 2.26644,0.39704 0.72791,0 1.55508,-0.14889 0.84372,-0.14889 1.95212,-0.47976 z"
         style="fill:#996f02;fill-opacity:1;stroke-width:0.847025"
         id="path911-7" />
      <path
         d="M 160.79253,129.59188 V 154.407 l -3.14324,0.16543 -0.29779,-2.87855 h -0.39704 q -0.16543,1.48891 -1.40619,2.26645 -1.24075,0.77754 -3.25905,0.77754 -2.21681,0 -3.78844,-1.0257 -1.55508,-1.04223 -2.38225,-3.04398 -0.81063,-2.00176 -0.81063,-4.86376 0,-2.92819 0.81063,-5.01266 0.82717,-2.08447 2.39879,-3.15979 1.58817,-1.09186 3.80499,-1.09186 2.10101,0 3.24251,0.8768 1.15804,0.86025 1.38964,2.6304 h 0.33087 v -10.45544 z m -7.94083,22.16817 q 4.43363,0 4.43363,-2.97781 v -4.23511 q 0,-5.0292 -4.46672,-5.0292 -1.93558,0 -2.99436,1.6378 -1.04223,1.63779 -1.04223,4.6487 0,2.94472 1.02569,4.45017 1.02569,1.50545 3.04399,1.50545 z"
         style="fill:#996f02;fill-opacity:1;stroke-width:0.847025"
         id="path913-2" />
      <path
         d="m 61.176894,130.40642 c 0.15441,0.70585 -0.28675,1.29039 -1.32347,1.7536 l -6.25341,2.81238 -0.29778,-0.69482 5.62475,-4.13585 c 0.52939,-0.39705 0.97055,-0.59557 1.32348,-0.59557 0.50733,0 0.81614,0.28675 0.92643,0.86026 z"
         style="fill:#996f02;fill-opacity:1;stroke-width:0.847025"
         id="path915-8"
         sodipodi:nodetypes="cccccsc" />
    </g>
    <g
       aria-label="Bokhald รณ"
       id="text899"
       style="font-size:33.8809px;line-height:1.25;font-family:'Cascadia Code';-inkscape-font-specification:'Cascadia Code';fill:#ffd714;fill-opacity:1;stroke-width:0.847025">
      <path
         d="m 36.088313,142.06561 q 3.490659,0.0496 5.376608,1.53854 1.902492,1.48891 1.902492,4.18548 0,2.08447 -0.843714,3.57338 -0.82717,1.48891 -2.431881,2.26645 -1.588167,0.77754 -3.838071,0.77754 h -8.999614 v -23.49164 h 6.981318 q 3.573377,0 5.525499,1.55508 1.952122,1.55508 1.952122,4.40054 0,2.1341 -1.45582,3.42449 -1.45582,1.29039 -4.168939,1.57162 z m -5.525499,-8.00701 v 6.36922 h 3.077075 q 2.183729,0 3.391398,-0.84372 1.207669,-0.84371 1.207669,-2.38225 0,-1.50545 -1.257299,-2.31607 -1.257299,-0.82718 -3.573376,-0.82718 z m 4.731415,17.20515 q 2.18373,0 3.391399,-0.9926 1.207669,-1.00915 1.207669,-2.81238 0,-1.85287 -1.273842,-2.86201 -1.2573,-1.0257 -3.556833,-1.0257 h -4.499808 v 7.69269 z"
         style="fill:#ffd714;fill-opacity:1;stroke-width:0.847025"
         id="path901" />
      <path
         d="m 54.385323,154.73787 q -2.415337,0 -4.152395,-1.05878 -1.720515,-1.07532 -2.630402,-3.11016 -0.893344,-2.05139 -0.893344,-4.92994 0,-2.87855 0.893344,-4.91339 0.909887,-2.05138 2.630402,-3.11016 1.737058,-1.07532 4.152395,-1.07532 2.415338,0 4.135853,1.07532 1.737058,1.05878 2.630402,3.11016 0.909887,2.03484 0.909887,4.91339 0,2.87855 -0.909887,4.92994 -0.893344,2.03484 -2.630402,3.11016 -1.720515,1.05878 -4.135853,1.05878 z m 0,-3.14325 q 1.935579,0 2.977814,-1.53854 1.058778,-1.55508 1.058778,-4.41709 0,-2.86201 -1.058778,-4.40055 -1.042235,-1.55508 -2.977814,-1.55508 -1.935578,0 -2.994357,1.55508 -1.042234,1.53854 -1.042234,4.40055 0,2.86201 1.042234,4.41709 1.058779,1.53854 2.994357,1.53854 z"
         style="fill:#ffd714;fill-opacity:1;stroke-width:0.847025"
         id="path903" />
      <path
         d="m 78.836482,154.407 -4.218569,-7.21293 q -1.158039,0.23161 -2.365708,0.23161 h -1.786688 v 6.98132 h -3.507203 v -24.81512 h 3.507203 v 14.69055 h 0.959518 q 2.216817,0 3.606463,-0.72791 1.389646,-0.72791 2.18373,-2.33262 0.810627,-1.60471 1.191125,-4.35092 h 3.63955 q -0.843714,6.36922 -4.152395,8.86727 l 5.277347,8.66875 z"
         style="fill:#ffd714;fill-opacity:1;stroke-width:0.847025"
         id="path905" />
      <path
         d="m 95.41298,136.54012 q 2.779292,0 4.301286,1.68742 1.521994,1.68743 1.521994,4.76451 V 154.407 h -3.507203 v -11.41495 q 0,-1.65435 -0.82717,-2.56423 -0.827171,-0.90989 -2.316078,-0.90989 -4.135852,0 -4.135852,5.0292 v 9.85987 h -3.507203 v -24.81512 h 3.507203 v 10.45544 h 0.330868 q 0.148891,-1.77015 1.290386,-2.6304 1.141495,-0.8768 3.341769,-0.8768 z"
         style="fill:#ffd714;fill-opacity:1;stroke-width:0.847025"
         id="path907" />
      <path
         d="m 123.17282,151.59462 v 2.81238 l -5.62476,0.16543 -0.16544,-3.87116 h -0.34741 q -0.18197,1.98521 -1.68742,3.0109 -1.48891,1.0257 -3.98697,1.0257 -2.7462,0 -4.25165,-1.30693 -1.50545,-1.32348 -1.50545,-3.75536 0,-2.77929 2.01829,-4.2682 2.03484,-1.4889 5.75711,-1.4889 2.0183,0 3.47412,0.41358 v -0.94297 q 0,-1.78669 -1.22422,-2.66349 -1.20767,-0.8768 -3.67263,-1.00915 l -4.20203,-0.19852 0.33087,-2.97781 3.54029,0.13234 q 4.33437,0.16544 6.45193,1.96867 2.11755,1.80323 2.11755,5.27735 v 7.31218 z m -11.24952,0.33087 q 1.55508,0 2.66349,-0.54594 1.12495,-0.54593 1.68743,-1.42273 0.57902,-0.8768 0.57902,-1.83632 v -1.05878 q -0.82717,-0.21506 -1.65435,-0.26469 -0.81062,-0.0662 -2.05138,-0.0662 -2.08447,0 -3.15979,0.66173 -1.07532,0.66174 -1.07532,1.95212 0,1.27385 0.761,1.93558 0.76099,0.6452 2.2499,0.6452 z"
         style="fill:#ffd714;fill-opacity:1;stroke-width:0.847025"
         id="path909" />
      <path
         d="m 141.46983,154.04304 q -1.32348,0.36396 -2.56423,0.52939 -1.24076,0.16544 -2.66349,0.16544 -2.05138,0 -3.30868,-0.72791 -1.2573,-0.72791 -1.85286,-2.24991 -0.59557,-1.52199 -0.59557,-3.97042 v -15.28611 h -5.16154 v -2.91164 h 8.66875 v 18.03232 q 0,1.48891 0.26469,2.33262 0.28124,0.82717 1.04224,1.24076 0.77754,0.39704 2.26644,0.39704 0.72791,0 1.55508,-0.14889 0.84372,-0.14889 1.95212,-0.47976 z"
         style="fill:#ffd714;fill-opacity:1;stroke-width:0.847025"
         id="path911" />
      <path
         d="M 160.79253,129.59188 V 154.407 l -3.14324,0.16543 -0.29779,-2.87855 h -0.39704 q -0.16543,1.48891 -1.40619,2.26645 -1.24075,0.77754 -3.25905,0.77754 -2.21681,0 -3.78844,-1.0257 -1.55508,-1.04223 -2.38225,-3.04398 -0.81063,-2.00176 -0.81063,-4.86376 0,-2.92819 0.81063,-5.01266 0.82717,-2.08447 2.39879,-3.15979 1.58817,-1.09186 3.80499,-1.09186 2.10101,0 3.24251,0.8768 1.15804,0.86025 1.38964,2.6304 h 0.33087 v -10.45544 z m -7.94083,22.16817 q 4.43363,0 4.43363,-2.97781 v -4.23511 q 0,-5.0292 -4.46672,-5.0292 -1.93558,0 -2.99436,1.6378 -1.04223,1.63779 -1.04223,4.6487 0,2.94472 1.02569,4.45017 1.02569,1.50545 3.04399,1.50545 z"
         style="fill:#ffd714;fill-opacity:1;stroke-width:0.847025"
         id="path913" />
      <path
         d="m 61.176894,130.40642 c 0.15441,0.70585 -0.28675,1.29039 -1.32347,1.7536 l -6.25341,2.81238 -0.29778,-0.69482 5.62475,-4.13585 c 0.52939,-0.39705 0.97055,-0.59557 1.32348,-0.59557 0.50733,0 0.81614,0.28675 0.92643,0.86026 z"
         style="fill:#ffd714;fill-opacity:1;stroke-width:0.847025"
         id="path915"
         sodipodi:nodetypes="cccccsc" />
    </g>
  </g>
</svg>
