<?xml version="1.0" encoding="UTF-8" standalone="no"?>
<svg
   xmlns:dc="http://purl.org/dc/elements/1.1/"
   xmlns:cc="http://creativecommons.org/ns#"
   xmlns:rdf="http://www.w3.org/1999/02/22-rdf-syntax-ns#"
   xmlns:svg="http://www.w3.org/2000/svg"
   xmlns="http://www.w3.org/2000/svg"
   xmlns:sodipodi="http://sodipodi.sourceforge.net/DTD/sodipodi-0.dtd"
   xmlns:inkscape="http://www.inkscape.org/namespaces/inkscape"
   width="151.99164mm"
   height="24.45599mm"
   viewBox="0 0 151.99164 24.455991"
   version="1.1"
   id="svg8"
   inkscape:version="1.0.2-2 (e86c870879, 2021-01-15)"
   sodipodi:docname="solUm.svg">
  <defs
     id="defs2">
    <inkscape:path-effect
       effect="bspline"
       id="path-effect920"
       is_visible="true"
       lpeversion="1"
       weight="33.333333"
       steps="2"
       helper_size="0"
       apply_no_weight="true"
       apply_with_weight="true"
       only_selected="false" />
    <inkscape:path-effect
       effect="bspline"
       id="path-effect912"
       is_visible="true"
       lpeversion="1"
       weight="33.333333"
       steps="2"
       helper_size="0"
       apply_no_weight="true"
       apply_with_weight="true"
       only_selected="false" />
    <inkscape:path-effect
       effect="powerstroke"
       id="path-effect908"
       is_visible="true"
       lpeversion="1"
       offset_points="0,0.1322915"
       sort_points="true"
       interpolator_type="CubicBezierJohan"
       interpolator_beta="0.2"
       start_linecap_type="zerowidth"
       linejoin_type="extrp_arc"
       miter_limit="4"
       scale_width="1"
       end_linecap_type="zerowidth" />
    <inkscape:path-effect
       effect="powerstroke"
       id="path-effect886"
       is_visible="true"
       lpeversion="1"
       offset_points="0,0.1322915"
       sort_points="true"
       interpolator_type="CubicBezierJohan"
       interpolator_beta="0.2"
       start_linecap_type="zerowidth"
       linejoin_type="extrp_arc"
       miter_limit="4"
       scale_width="1"
       end_linecap_type="zerowidth" />
    <inkscape:path-effect
       effect="bspline"
       id="path-effect876"
       is_visible="true"
       lpeversion="1"
       weight="33.333333"
       steps="2"
       helper_size="0"
       apply_no_weight="true"
       apply_with_weight="true"
       only_selected="false" />
    <pattern
       id="EMFhbasepattern"
       patternUnits="userSpaceOnUse"
       width="6"
       height="6"
       x="0"
       y="0" />
  </defs>
  <sodipodi:namedview
     id="base"
     pagecolor="#ffffff"
     bordercolor="#666666"
     borderopacity="1.0"
     inkscape:pageopacity="0.0"
     inkscape:pageshadow="2"
     inkscape:zoom="1.4"
     inkscape:cx="192.37387"
     inkscape:cy="178.80453"
     inkscape:document-units="mm"
     inkscape:current-layer="layer1"
     inkscape:document-rotation="0"
     showgrid="false"
     inkscape:snap-nodes="false"
     inkscape:window-width="1920"
     inkscape:window-height="1017"
     inkscape:window-x="-8"
     inkscape:window-y="-8"
     inkscape:window-maximized="1"
     fit-margin-top="0"
     fit-margin-left="0"
     fit-margin-right="0"
     fit-margin-bottom="0" />
  <metadata
     id="metadata5">
    <rdf:RDF>
      <cc:Work
         rdf:about="">
        <dc:format>image/svg+xml</dc:format>
        <dc:type
           rdf:resource="http://purl.org/dc/dcmitype/StillImage" />
        <dc:title></dc:title>
      </cc:Work>
    </rdf:RDF>
  </metadata>
  <g
     inkscape:label="Sol"
     inkscape:groupmode="layer"
     id="layer1"
     transform="translate(-32.832455,-129.13193)">
    <g
       aria-label="Um Okkum"
       id="text1009-3"
       style="font-size:32.9511px;line-height:1.25;font-family:'Cascadia Code';-inkscape-font-specification:'Cascadia Code';fill:#996f03;fill-opacity:1;stroke-width:0.82378"
       transform="translate(1.587878,-9e-5)">
      <path
         d="m 40.169224,153.26613 q -7.336769,0 -7.336769,-7.65856 v -15.1884 h 3.217881 v 15.1884 q 0,2.31688 1.013633,3.45922 1.013632,1.14235 3.169612,1.14235 2.075533,0 3.121345,-1.15844 1.0619,-1.15843 1.0619,-3.44313 v -15.1884 h 3.217881 v 15.1884 q 0,3.81319 -1.89855,5.74392 -1.88246,1.91464 -5.566933,1.91464 z"
         style="fill:#996f03;fill-opacity:1;stroke-width:0.82378"
         id="path1011-5" />
      <path
         d="m 64.013721,135.88957 q 1.769834,0 2.574305,0.94928 0.80447,0.94927 0.80447,3.07307 v 13.35421 h -3.410954 v -13.03242 q 0,-0.90101 -0.321788,-1.33542 -0.321788,-0.43441 -0.997543,-0.43441 -1.673298,0 -1.673298,2.31687 v 12.48538 H 58.09282 v -13.35421 q 0,-1.44804 -1.35151,-1.44804 -1.641119,0 -1.641119,2.31687 v 12.48538 h -3.410954 v -17.05477 h 3.024808 l 0.225252,2.1238 h 0.257431 q 0.09654,-1.23888 0.80447,-1.83419 0.724023,-0.6114 2.123801,-0.6114 1.09408,0 1.802013,0.62749 0.707934,0.6114 0.949275,1.8181 h 0.27352 q 0.08045,-1.04581 0.82056,-1.73765 0.756202,-0.70794 2.043354,-0.70794 z"
         style="fill:#996f03;fill-opacity:1;stroke-width:0.82378"
         id="path1013-4" />
      <path
         d="m 98.155437,153.58792 q -8.430847,0 -8.430847,-11.58437 0,-11.90616 8.430847,-11.90616 8.430843,0 8.430843,11.90616 0,11.58437 -8.430843,11.58437 z m 0,-2.96045 q 5.052073,0 5.052073,-8.62392 0,-8.94571 -5.052073,-8.94571 -5.052073,0 -5.052073,8.94571 0,8.62392 5.052073,8.62392 z"
         style="fill:#996f03;fill-opacity:1;stroke-width:0.82378"
         id="path1015-7" />
      <path
         d="m 121.93558,153.26613 -4.1028,-7.01498 q -1.12626,0.22525 -2.30079,0.22525 h -1.73765 v 6.78973 h -3.41096 v -24.13411 h 3.41096 v 14.28739 h 0.93318 q 2.15598,0 3.50749,-0.70793 1.35151,-0.70793 2.12381,-2.26861 0.78838,-1.56067 1.15843,-4.23151 h 3.53967 q -0.82056,6.19442 -4.03844,8.62392 l 5.13252,8.43085 z"
         style="fill:#996f03;fill-opacity:1;stroke-width:0.82378"
         id="path1017-2" />
      <path
         d="m 141.24286,153.26613 -4.1028,-7.01498 q -1.12626,0.22525 -2.30078,0.22525 h -1.73766 v 6.78973 h -3.41095 v -24.13411 h 3.41095 v 14.28739 h 0.93319 q 2.15598,0 3.50749,-0.70793 1.35151,-0.70793 2.1238,-2.26861 0.78838,-1.56067 1.15843,-4.23151 h 3.53967 q -0.82056,6.19442 -4.03844,8.62392 l 5.13252,8.43085 z"
         style="fill:#996f03;fill-opacity:1;stroke-width:0.82378"
         id="path1019-5" />
      <path
         d="m 165.05518,150.53093 v 2.7352 l -5.4704,0.16089 -0.24134,-3.44313 h -0.3057 q -0.38614,1.73766 -1.48022,2.67084 -1.07799,0.93319 -2.67084,0.93319 -2.84783,0 -4.4085,-1.59285 -1.54458,-1.59286 -1.54458,-4.52113 v -11.58437 h 3.34659 v 11.58437 q 0,1.54459 0.85274,2.38123 0.85274,0.83665 2.39732,0.83665 1.89855,0 2.83174,-1.23888 0.93318,-1.25497 0.93318,-4.07062 v -9.49275 h 3.41096 v 14.28739 z"
         style="fill:#996f03;fill-opacity:1;stroke-width:0.82378"
         id="path1021-0" />
      <path
         d="m 179.85744,135.88957 q 1.76983,0 2.5743,0.94928 0.80447,0.94927 0.80447,3.07307 v 13.35421 h -3.41095 v -13.03242 q 0,-0.90101 -0.32179,-1.33542 -0.32179,-0.43441 -0.99754,-0.43441 -1.6733,0 -1.6733,2.31687 v 12.48538 h -2.89609 v -13.35421 q 0,-1.44804 -1.35151,-1.44804 -1.64112,0 -1.64112,2.31687 v 12.48538 h -3.41096 v -17.05477 h 3.02481 l 0.22525,2.1238 h 0.25743 q 0.0965,-1.23888 0.80447,-1.83419 0.72403,-0.6114 2.1238,-0.6114 1.09408,0 1.80202,0.62749 0.70793,0.6114 0.94927,1.8181 h 0.27352 q 0.0805,-1.04581 0.82056,-1.73765 0.7562,-0.70794 2.04336,-0.70794 z"
         style="fill:#996f03;fill-opacity:1;stroke-width:0.82378"
         id="path1023-3" />
    </g>
    <g
       aria-label="Um Okkum"
       id="text1009"
       style="font-size:32.9511px;line-height:1.25;font-family:'Cascadia Code';-inkscape-font-specification:'Cascadia Code';fill:#ffd714;fill-opacity:1;stroke-width:0.82378">
      <path
         d="m 40.169224,153.26613 q -7.336769,0 -7.336769,-7.65856 v -15.1884 h 3.217881 v 15.1884 q 0,2.31688 1.013633,3.45922 1.013632,1.14235 3.169612,1.14235 2.075533,0 3.121345,-1.15844 1.0619,-1.15843 1.0619,-3.44313 v -15.1884 h 3.217881 v 15.1884 q 0,3.81319 -1.89855,5.74392 -1.88246,1.91464 -5.566933,1.91464 z"
         style="fill:#ffd714;fill-opacity:1;stroke-width:0.82378"
         id="path1011" />
      <path
         d="m 64.013721,135.88957 q 1.769834,0 2.574305,0.94928 0.80447,0.94927 0.80447,3.07307 v 13.35421 h -3.410954 v -13.03242 q 0,-0.90101 -0.321788,-1.33542 -0.321788,-0.43441 -0.997543,-0.43441 -1.673298,0 -1.673298,2.31687 v 12.48538 H 58.09282 v -13.35421 q 0,-1.44804 -1.35151,-1.44804 -1.641119,0 -1.641119,2.31687 v 12.48538 h -3.410954 v -17.05477 h 3.024808 l 0.225252,2.1238 h 0.257431 q 0.09654,-1.23888 0.80447,-1.83419 0.724023,-0.6114 2.123801,-0.6114 1.09408,0 1.802013,0.62749 0.707934,0.6114 0.949275,1.8181 h 0.27352 q 0.08045,-1.04581 0.82056,-1.73765 0.756202,-0.70794 2.043354,-0.70794 z"
         style="fill:#ffd714;fill-opacity:1;stroke-width:0.82378"
         id="path1013" />
      <path
         d="m 98.155437,153.58792 q -8.430847,0 -8.430847,-11.58437 0,-11.90616 8.430847,-11.90616 8.430843,0 8.430843,11.90616 0,11.58437 -8.430843,11.58437 z m 0,-2.96045 q 5.052073,0 5.052073,-8.62392 0,-8.94571 -5.052073,-8.94571 -5.052073,0 -5.052073,8.94571 0,8.62392 5.052073,8.62392 z"
         style="fill:#ffd714;fill-opacity:1;stroke-width:0.82378"
         id="path1015" />
      <path
         d="m 121.93558,153.26613 -4.1028,-7.01498 q -1.12626,0.22525 -2.30079,0.22525 h -1.73765 v 6.78973 h -3.41096 v -24.13411 h 3.41096 v 14.28739 h 0.93318 q 2.15598,0 3.50749,-0.70793 1.35151,-0.70793 2.12381,-2.26861 0.78838,-1.56067 1.15843,-4.23151 h 3.53967 q -0.82056,6.19442 -4.03844,8.62392 l 5.13252,8.43085 z"
         style="fill:#ffd714;fill-opacity:1;stroke-width:0.82378"
         id="path1017" />
      <path
         d="m 141.24286,153.26613 -4.1028,-7.01498 q -1.12626,0.22525 -2.30078,0.22525 h -1.73766 v 6.78973 h -3.41095 v -24.13411 h 3.41095 v 14.28739 h 0.93319 q 2.15598,0 3.50749,-0.70793 1.35151,-0.70793 2.1238,-2.26861 0.78838,-1.56067 1.15843,-4.23151 h 3.53967 q -0.82056,6.19442 -4.03844,8.62392 l 5.13252,8.43085 z"
         style="fill:#ffd714;fill-opacity:1;stroke-width:0.82378"
         id="path1019" />
      <path
         d="m 165.05518,150.53093 v 2.7352 l -5.4704,0.16089 -0.24134,-3.44313 h -0.3057 q -0.38614,1.73766 -1.48022,2.67084 -1.07799,0.93319 -2.67084,0.93319 -2.84783,0 -4.4085,-1.59285 -1.54458,-1.59286 -1.54458,-4.52113 v -11.58437 h 3.34659 v 11.58437 q 0,1.54459 0.85274,2.38123 0.85274,0.83665 2.39732,0.83665 1.89855,0 2.83174,-1.23888 0.93318,-1.25497 0.93318,-4.07062 v -9.49275 h 3.41096 v 14.28739 z"
         style="fill:#ffd714;fill-opacity:1;stroke-width:0.82378"
         id="path1021" />
      <path
         d="m 179.85744,135.88957 q 1.76983,0 2.5743,0.94928 0.80447,0.94927 0.80447,3.07307 v 13.35421 h -3.41095 v -13.03242 q 0,-0.90101 -0.32179,-1.33542 -0.32179,-0.43441 -0.99754,-0.43441 -1.6733,0 -1.6733,2.31687 v 12.48538 h -2.89609 v -13.35421 q 0,-1.44804 -1.35151,-1.44804 -1.64112,0 -1.64112,2.31687 v 12.48538 h -3.41096 v -17.05477 h 3.02481 l 0.22525,2.1238 h 0.25743 q 0.0965,-1.23888 0.80447,-1.83419 0.72403,-0.6114 2.1238,-0.6114 1.09408,0 1.80202,0.62749 0.70793,0.6114 0.94927,1.8181 h 0.27352 q 0.0805,-1.04581 0.82056,-1.73765 0.7562,-0.70794 2.04336,-0.70794 z"
         style="fill:#ffd714;fill-opacity:1;stroke-width:0.82378"
         id="path1023" />
    </g>
  </g>
</svg>
