<?xml version="1.0" encoding="UTF-8"?>
<svg width="151.99mm" height="24.456mm" version="1.1" viewBox="0 0 151.99 24.456" xmlns="http://www.w3.org/2000/svg" xmlns:cc="http://creativecommons.org/ns#" xmlns:dc="http://purl.org/dc/elements/1.1/" xmlns:rdf="http://www.w3.org/1999/02/22-rdf-syntax-ns#">
 <metadata>
  <rdf:RDF>
   <cc:Work rdf:about="">
    <dc:format>image/svg+xml</dc:format>
    <dc:type rdf:resource="http://purl.org/dc/dcmitype/StillImage"/>
    <dc:title/>
   </cc:Work>
  </rdf:RDF>
 </metadata>
 <g transform="translate(-32.832 -129.13)">
  <g transform="translate(1.5879 -9e-5)" style="fill:#996f03;stroke-width:.82378" aria-label="Um Okkum">
   <path d="m40.169 153.27q-7.3368 0-7.3368-7.6586v-15.188h3.2179v15.188q0 2.3169 1.0136 3.4592 1.0136 1.1424 3.1696 1.1424 2.0755 0 3.1213-1.1584 1.0619-1.1584 1.0619-3.4431v-15.188h3.2179v15.188q0 3.8132-1.8986 5.7439-1.8825 1.9146-5.5669 1.9146z" style="fill:#996f03;stroke-width:.82378"/>
   <path d="m64.014 135.89q1.7698 0 2.5743 0.94928 0.80447 0.94927 0.80447 3.0731v13.354h-3.411v-13.032q0-0.90101-0.32179-1.3354t-0.99754-0.43441q-1.6733 0-1.6733 2.3169v12.485h-2.8961v-13.354q0-1.448-1.3515-1.448-1.6411 0-1.6411 2.3169v12.485h-3.411v-17.055h3.0248l0.22525 2.1238h0.25743q0.09654-1.2389 0.80447-1.8342 0.72402-0.6114 2.1238-0.6114 1.0941 0 1.802 0.62749 0.70793 0.6114 0.94928 1.8181h0.27352q0.08045-1.0458 0.82056-1.7376 0.7562-0.70794 2.0434-0.70794z" style="fill:#996f03;stroke-width:.82378"/>
   <path d="m98.155 153.59q-8.4308 0-8.4308-11.584 0-11.906 8.4308-11.906 8.4308 0 8.4308 11.906 0 11.584-8.4308 11.584zm0-2.9604q5.0521 0 5.0521-8.6239 0-8.9457-5.0521-8.9457t-5.0521 8.9457q0 8.6239 5.0521 8.6239z" style="fill:#996f03;stroke-width:.82378"/>
   <path d="m121.94 153.27-4.1028-7.015q-1.1263 0.22525-2.3008 0.22525h-1.7376v6.7897h-3.411v-24.134h3.411v14.287h0.93318q2.156 0 3.5075-0.70793t2.1238-2.2686q0.78838-1.5607 1.1584-4.2315h3.5397q-0.82056 6.1944-4.0384 8.6239l5.1325 8.4308z" style="fill:#996f03;stroke-width:.82378"/>
   <path d="m141.24 153.27-4.1028-7.015q-1.1263 0.22525-2.3008 0.22525h-1.7377v6.7897h-3.411v-24.134h3.411v14.287h0.93319q2.156 0 3.5075-0.70793t2.1238-2.2686q0.78838-1.5607 1.1584-4.2315h3.5397q-0.82056 6.1944-4.0384 8.6239l5.1325 8.4308z" style="fill:#996f03;stroke-width:.82378"/>
   <path d="m165.06 150.53v2.7352l-5.4704 0.16089-0.24134-3.4431h-0.3057q-0.38614 1.7377-1.4802 2.6708-1.078 0.93319-2.6708 0.93319-2.8478 0-4.4085-1.5928-1.5446-1.5929-1.5446-4.5211v-11.584h3.3466v11.584q0 1.5446 0.85274 2.3812 0.85274 0.83665 2.3973 0.83665 1.8986 0 2.8317-1.2389 0.93318-1.255 0.93318-4.0706v-9.4928h3.411v14.287z" style="fill:#996f03;stroke-width:.82378"/>
   <path d="m179.86 135.89q1.7698 0 2.5743 0.94928 0.80447 0.94927 0.80447 3.0731v13.354h-3.411v-13.032q0-0.90101-0.32179-1.3354t-0.99754-0.43441q-1.6733 0-1.6733 2.3169v12.485h-2.8961v-13.354q0-1.448-1.3515-1.448-1.6411 0-1.6411 2.3169v12.485h-3.411v-17.055h3.0248l0.22525 2.1238h0.25743q0.0965-1.2389 0.80447-1.8342 0.72403-0.6114 2.1238-0.6114 1.0941 0 1.802 0.62749 0.70793 0.6114 0.94927 1.8181h0.27352q0.0805-1.0458 0.82056-1.7376 0.7562-0.70794 2.0434-0.70794z" style="fill:#996f03;stroke-width:.82378"/>
  </g>
  <g style="fill:#ffd714;stroke-width:.82378" aria-label="Um Okkum">
   <path d="m40.169 153.27q-7.3368 0-7.3368-7.6586v-15.188h3.2179v15.188q0 2.3169 1.0136 3.4592 1.0136 1.1424 3.1696 1.1424 2.0755 0 3.1213-1.1584 1.0619-1.1584 1.0619-3.4431v-15.188h3.2179v15.188q0 3.8132-1.8986 5.7439-1.8825 1.9146-5.5669 1.9146z" style="fill:#ffd714;stroke-width:.82378"/>
   <path d="m64.014 135.89q1.7698 0 2.5743 0.94928 0.80447 0.94927 0.80447 3.0731v13.354h-3.411v-13.032q0-0.90101-0.32179-1.3354t-0.99754-0.43441q-1.6733 0-1.6733 2.3169v12.485h-2.8961v-13.354q0-1.448-1.3515-1.448-1.6411 0-1.6411 2.3169v12.485h-3.411v-17.055h3.0248l0.22525 2.1238h0.25743q0.09654-1.2389 0.80447-1.8342 0.72402-0.6114 2.1238-0.6114 1.0941 0 1.802 0.62749 0.70793 0.6114 0.94928 1.8181h0.27352q0.08045-1.0458 0.82056-1.7376 0.7562-0.70794 2.0434-0.70794z" style="fill:#ffd714;stroke-width:.82378"/>
   <path d="m98.155 153.59q-8.4308 0-8.4308-11.584 0-11.906 8.4308-11.906 8.4308 0 8.4308 11.906 0 11.584-8.4308 11.584zm0-2.9604q5.0521 0 5.0521-8.6239 0-8.9457-5.0521-8.9457t-5.0521 8.9457q0 8.6239 5.0521 8.6239z" style="fill:#ffd714;stroke-width:.82378"/>
   <path d="m121.94 153.27-4.1028-7.015q-1.1263 0.22525-2.3008 0.22525h-1.7376v6.7897h-3.411v-24.134h3.411v14.287h0.93318q2.156 0 3.5075-0.70793t2.1238-2.2686q0.78838-1.5607 1.1584-4.2315h3.5397q-0.82056 6.1944-4.0384 8.6239l5.1325 8.4308z" style="fill:#ffd714;stroke-width:.82378"/>
   <path d="m141.24 153.27-4.1028-7.015q-1.1263 0.22525-2.3008 0.22525h-1.7377v6.7897h-3.411v-24.134h3.411v14.287h0.93319q2.156 0 3.5075-0.70793t2.1238-2.2686q0.78838-1.5607 1.1584-4.2315h3.5397q-0.82056 6.1944-4.0384 8.6239l5.1325 8.4308z" style="fill:#ffd714;stroke-width:.82378"/>
   <path d="m165.06 150.53v2.7352l-5.4704 0.16089-0.24134-3.4431h-0.3057q-0.38614 1.7377-1.4802 2.6708-1.078 0.93319-2.6708 0.93319-2.8478 0-4.4085-1.5928-1.5446-1.5929-1.5446-4.5211v-11.584h3.3466v11.584q0 1.5446 0.85274 2.3812 0.85274 0.83665 2.3973 0.83665 1.8986 0 2.8317-1.2389 0.93318-1.255 0.93318-4.0706v-9.4928h3.411v14.287z" style="fill:#ffd714;stroke-width:.82378"/>
   <path d="m179.86 135.89q1.7698 0 2.5743 0.94928 0.80447 0.94927 0.80447 3.0731v13.354h-3.411v-13.032q0-0.90101-0.32179-1.3354t-0.99754-0.43441q-1.6733 0-1.6733 2.3169v12.485h-2.8961v-13.354q0-1.448-1.3515-1.448-1.6411 0-1.6411 2.3169v12.485h-3.411v-17.055h3.0248l0.22525 2.1238h0.25743q0.0965-1.2389 0.80447-1.8342 0.72403-0.6114 2.1238-0.6114 1.0941 0 1.802 0.62749 0.70793 0.6114 0.94927 1.8181h0.27352q0.0805-1.0458 0.82056-1.7376 0.7562-0.70794 2.0434-0.70794z" style="fill:#ffd714;stroke-width:.82378"/>
  </g>
 </g>
</svg>
